<svg width="24" height="24" viewBox="0 0 24 24" fill="none" xmlns="http://www.w3.org/2000/svg">
<path fill-rule="evenodd" clip-rule="evenodd" d="M12.043 14.151C12.1106 14.1506 12.1774 14.1654 12.2385 14.1943C12.2996 14.2232 12.3534 14.2655 12.396 14.318L17.578 19.923C17.6293 19.9879 17.6614 20.0659 17.6706 20.1481C17.6798 20.2303 17.6657 20.3134 17.63 20.388C17.5924 20.462 17.5353 20.5243 17.4647 20.568C17.3942 20.6118 17.313 20.6353 17.23 20.636H6.861C6.77801 20.6353 6.69681 20.6118 6.62627 20.568C6.55573 20.5243 6.49856 20.462 6.461 20.388C6.42422 20.3137 6.40957 20.2303 6.41879 20.1479C6.428 20.0654 6.46071 19.9874 6.513 19.923L11.695 14.318C11.737 14.2661 11.79 14.2242 11.8502 14.1953C11.9104 14.1664 11.9762 14.1513 12.043 14.151ZM5.705 5.702C7.37442 3.99603 9.65316 3.02308 12.0399 2.9972C14.4267 2.97132 16.726 3.89463 18.432 5.564C19.2595 6.40849 19.9125 7.40775 20.3537 8.5047C20.7949 9.60165 21.0156 10.7748 21.0033 11.9571C20.9909 13.1393 20.7457 14.3076 20.2817 15.3951C19.8177 16.4826 19.144 17.468 18.299 18.295L17.536 17.532C19.0348 16.0648 19.8896 14.0624 19.9123 11.9651C19.935 9.86775 19.1237 7.8473 17.657 6.348C16.1406 4.93556 14.1353 4.16666 12.0633 4.20319C9.99137 4.23971 8.01441 5.07883 6.54875 6.54384C5.0831 8.00885 4.24311 9.98543 4.20566 12.0574C4.16822 14.1293 4.93624 16.135 6.348 17.652L5.568 18.432C4.7409 17.5873 4.08832 16.5879 3.64756 15.4909C3.2068 14.3939 2.98649 13.2208 2.99921 12.0386C3.01193 10.8565 3.25744 9.68838 3.72171 8.60112C4.18598 7.51387 4.85991 6.52873 5.705 5.702ZM7.535 7.441C8.11696 6.83547 8.81386 6.35211 9.5849 6.0192C10.3559 5.6863 11.1857 5.51053 12.0255 5.5022C12.8653 5.49386 13.6983 5.65313 14.4758 5.97067C15.2533 6.28821 15.9596 6.75765 16.5535 7.35151C17.1474 7.94537 17.6168 8.65172 17.9343 9.42922C18.2519 10.2067 18.4111 11.0397 18.4028 11.8795C18.3945 12.7194 18.2187 13.5491 17.8858 14.3201C17.5529 15.0911 17.0695 15.788 16.464 16.37L15.701 15.607C16.2161 15.1278 16.6293 14.5498 16.916 13.9073C17.2027 13.2649 17.3571 12.5713 17.3697 11.8679C17.3824 11.1645 17.2533 10.4658 16.9899 9.8134C16.7266 9.16105 16.3345 8.56845 15.837 8.07099C15.3396 7.57354 14.747 7.18143 14.0946 6.91809C13.4422 6.65474 12.7435 6.52556 12.0401 6.53826C11.3367 6.55095 10.6431 6.70526 10.0007 6.99197C9.35825 7.27869 8.78018 7.69192 8.301 8.207C7.29799 9.18879 6.726 10.5288 6.71081 11.9322C6.69562 13.3357 7.23848 14.6877 8.22 15.691L7.44 16.471C6.25569 15.2613 5.60038 13.6307 5.6182 11.9378C5.63601 10.245 6.3255 8.62854 7.535 7.444V7.441ZM9.299 9.302C9.65357 8.94743 10.0745 8.66617 10.5378 8.47428C11.001 8.28239 11.4976 8.18362 11.999 8.18362C12.5004 8.18362 12.997 8.28239 13.4602 8.47428C13.9235 8.66617 14.3444 8.94743 14.699 9.302C15.0536 9.65657 15.3348 10.0775 15.5267 10.5408C15.7186 11.004 15.8174 11.5006 15.8174 12.002C15.8174 12.5034 15.7186 13 15.5267 13.4632C15.3348 13.9265 15.0536 14.3474 14.699 14.702L13.936 13.939C14.3087 13.5499 14.5583 13.0594 14.6534 12.5291C14.7486 11.9987 14.6851 11.4521 14.4709 10.9577C14.2567 10.4633 13.9013 10.0431 13.4493 9.74979C12.9974 9.45649 12.4689 9.30312 11.9301 9.3089C11.3913 9.31469 10.8662 9.47937 10.4206 9.78231C9.97502 10.0853 9.62877 10.513 9.42523 11.0119C9.2217 11.5108 9.16995 12.0586 9.27646 12.5868C9.38298 13.115 9.64302 13.6 10.024 13.981L9.244 14.761C8.8889 14.3991 8.60861 13.9707 8.41917 13.5004C8.22973 13.0301 8.13485 12.5271 8.13996 12.0201C8.14506 11.5131 8.25006 11.0121 8.44894 10.5457C8.64782 10.0793 8.93668 9.65668 9.299 9.302Z" fill="black"/>
</svg>
