<svg xmlns="http://www.w3.org/2000/svg" viewBox="0 0 24 24">
  <path d="M12.043 14.151a.45.45 0 01.353.167l5.182 5.605a.442.442 0 01.052.465.453.453 0 01-.4.248H6.861a.452.452 0 01-.4-.248.433.433 0 01.052-.465l5.182-5.605a.45.45 0 01.348-.167zM5.705 5.702a9 9 0 0112.727-.138 9 9 0 01-.133 12.731l-.763-.763a7.91 7.91 0 00.121-11.184A8 8 0 006.348 17.652l-.78.78a9 9 0 01.137-12.73zm1.83 1.739a6.315 6.315 0 118.929 8.929l-.763-.763a5.235 5.235 0 10-7.4-7.4 5.293 5.293 0 00-.081 7.484l-.78.78a6.384 6.384 0 01.095-9.027v-.003zm1.764 1.861a3.818 3.818 0 115.4 5.4l-.763-.763a2.737 2.737 0 10-3.912.042l-.78.78a3.858 3.858 0 01.055-5.459z"/>
</svg>
