<svg xmlns="http://www.w3.org/2000/svg" viewBox="0 0 24 24">
  <path d="M11.9 4.118a7.91 7.91 0 017.84 7.978 8.036 8.036 0 01-1.459 4.636c.007.005.014.01.02.017l2.372 2.351a1.106 1.106 0 010 1.57 1.121 1.121 0 01-1.579 0l-2.331-2.319a7.735 7.735 0 01-9.611.085l-2.246 2.239a1.121 1.121 0 01-1.82-.36 1.106 1.106 0 01.241-1.21L5.6 16.842A8.034 8.034 0 014.064 12.1 7.91 7.91 0 0111.9 4.118zm0 3.324a.36.36 0 00-.356.363V12.1H8.518a.363.363 0 000 .725H11.9a.36.36 0 00.356-.363V7.8a.36.36 0 00-.356-.358zM6.808 3.03c.538 0 1.067.143 1.532.414l-4.226 4.3a3.18 3.18 0 01-.407-1.559A3.129 3.129 0 016.808 3.03zM17.028 3a3.129 3.129 0 013.1 3.155 3.18 3.18 0 01-.407 1.559l-4.221-4.3c.464-.27.991-.413 1.528-.414z"/>
</svg>
