<svg width="24" height="24" viewBox="0 0 24 24" fill="none" xmlns="http://www.w3.org/2000/svg">
<mask id="mask0" mask-type="alpha" maskUnits="userSpaceOnUse" x="3" y="3" width="18" height="19">
<path fill-rule="evenodd" clip-rule="evenodd" d="M11.9 4.118C13.9976 4.13648 16.0019 4.98736 17.4721 6.48349C18.9424 7.97961 19.7581 9.99846 19.74 12.096C19.7438 13.7549 19.2342 15.3743 18.281 16.732C18.2884 16.7368 18.2951 16.7425 18.301 16.749L20.673 19.1C20.7766 19.2028 20.8588 19.3251 20.9149 19.4598C20.971 19.5946 20.9999 19.7391 20.9999 19.885C20.9999 20.0309 20.971 20.1754 20.9149 20.3102C20.8588 20.4449 20.7766 20.5672 20.673 20.67C20.463 20.8783 20.1793 20.9952 19.8835 20.9952C19.5878 20.9952 19.304 20.8783 19.094 20.67L16.763 18.351C15.4054 19.4471 13.7171 20.052 11.9723 20.0674C10.2275 20.0829 8.52878 19.5079 7.15201 18.436L4.90601 20.675C4.69605 20.8833 4.41227 21.0002 4.11651 21.0002C3.82075 21.0002 3.53698 20.8833 3.32701 20.675C3.22343 20.5722 3.14121 20.4499 3.08511 20.3152C3.02901 20.1804 3.00012 20.0359 3.00012 19.89C3.00012 19.7441 3.02901 19.5996 3.08511 19.4648C3.14121 19.3301 3.22343 19.2078 3.32701 19.105L5.60001 16.842C4.59821 15.4642 4.06031 13.8035 4.06401 12.1C4.04483 10.0025 4.85959 7.98318 6.32908 6.4863C7.79858 4.98943 9.80247 4.13754 11.9 4.118ZM11.9 7.442C11.8047 7.44306 11.7137 7.48186 11.647 7.54991C11.5802 7.61796 11.5432 7.70969 11.544 7.805V12.1H8.51801C8.42516 12.1049 8.33773 12.1452 8.27373 12.2126C8.20974 12.2801 8.17406 12.3695 8.17406 12.4625C8.17406 12.5555 8.20974 12.6449 8.27373 12.7124C8.33773 12.7798 8.42516 12.8201 8.51801 12.825H11.9C11.9953 12.8239 12.0863 12.7851 12.153 12.7171C12.2198 12.649 12.2568 12.5573 12.256 12.462V7.8C12.2555 7.70556 12.2179 7.6151 12.1513 7.54813C12.0847 7.48117 11.9945 7.44305 11.9 7.442ZM6.80801 3.03C7.34631 3.03002 7.87497 3.17288 8.34001 3.444L4.11401 7.744C3.84676 7.26789 3.70659 6.73099 3.70701 6.185C3.70009 5.35547 4.02285 4.55714 4.60435 3.96552C5.18585 3.37389 5.97849 3.03739 6.80801 3.03ZM17.028 3C17.8574 3.00766 18.6497 3.34427 19.231 3.93587C19.8123 4.52747 20.1349 5.32564 20.128 6.155C20.1284 6.70099 19.9883 7.23789 19.721 7.714L15.5 3.414C15.9639 3.14356 16.4911 3.00073 17.028 3Z" fill="#1C203C"/>
</mask>
<g mask="url(#mask0)">
<rect width="24" height="24" fill="#1C203C"/>
</g>
</svg>
