<svg xmlns="http://www.w3.org/2000/svg" viewBox="0 0 24 24">
  <path d="M7.54 9.527a.135.135 0 01.186 0l.56.56a.135.135 0 010 .185L6.51 12.047l1.765 1.775a.135.135 0 01-.02.185l-.56.56a.135.135 0 01-.185 0l-1.845-1.85-.56-.56a.13.13 0 010-.19l.56-.56 1.875-1.88zm5.37-.12a1.426 1.426 0 011.6 1.43 1.174 1.174 0 01-.6 1.07 1.13 1.13 0 01.68 1.07 1.507 1.507 0 01-1.68 1.5 1.673 1.673 0 01-1.82-1.57h1a.746.746 0 00.8.73.644.644 0 00.71-.65c0-.415-.32-.665-.774-.665h-.315v-.815h.28c.415 0 .735-.21.735-.615a.6.6 0 00-.64-.61.68.68 0 00-.72.675h-1a1.665 1.665 0 011.745-1.55zm4.09.005c1.15 0 1.936 1.04 1.936 2.535s-.785 2.535-1.92 2.535c-1.135 0-1.95-1.04-1.95-2.535s.78-2.535 1.93-2.535H17zm0 .91c-.654 0-.934.715-.934 1.625s.27 1.625.935 1.625.935-.715.935-1.625-.285-1.625-.94-1.625H17z"/>
</svg>
