<svg xmlns="http://www.w3.org/2000/svg" viewBox="0 0 24 24">
  <path d="M6.054 8.703a.18.18 0 01.247 0l.747.746a.18.18 0 010 .247L4.68 12.063l2.353 2.366a.18.18 0 01-.026.247l-.747.747a.18.18 0 01-.247 0l-2.46-2.467-.746-.747a.173.173 0 010-.253l.746-.747 2.5-2.506zm7.16-.16a1.902 1.902 0 012.133 1.906 1.568 1.568 0 01-.8 1.427 1.507 1.507 0 01.907 1.427 2.01 2.01 0 01-2.24 2 2.236 2.236 0 01-2.427-2.094h1.334a.993.993 0 001.066.974.861.861 0 00.947-.867c0-.553-.427-.887-1.033-.887h-.42v-1.086h.373c.553 0 .98-.28.98-.82a.8.8 0 00-.853-.814.907.907 0 00-.96.9h-1.334a2.22 2.22 0 012.327-2.066zm5.454.006c1.533 0 2.58 1.387 2.58 3.38 0 1.994-1.047 3.38-2.56 3.38-1.514 0-2.6-1.386-2.6-3.38 0-1.993 1.04-3.38 2.573-3.38h.006zm0 1.214c-.874 0-1.247.953-1.247 2.166 0 1.214.36 2.167 1.247 2.167.886 0 1.246-.953 1.246-2.167 0-1.213-.38-2.166-1.253-2.166h.006z"/>
</svg>
