<svg width="24" height="24" viewBox="0 0 24 24" fill="none" xmlns="http://www.w3.org/2000/svg">
<mask id="mask0" mask-type="alpha" maskUnits="userSpaceOnUse" x="2" y="0" width="21" height="22">
<path fill-rule="evenodd" clip-rule="evenodd" d="M13.753 20.177C13.7376 20.6317 13.5462 21.0626 13.2191 21.3788C12.8921 21.695 12.4549 21.8718 12 21.8718C11.5451 21.8718 11.1079 21.695 10.7809 21.3788C10.4538 21.0626 10.2624 20.6317 10.247 20.177H13.753ZM12 0.999999C12.3079 0.991662 12.6065 1.10589 12.8302 1.31759C13.0539 1.52929 13.1844 1.82113 13.193 2.129V3.587C13.193 3.587 13.193 3.593 13.193 3.595C17.293 4.014 18.093 6.687 18.093 11.563C18.093 15.074 20.639 17.677 22.002 18.087L21.821 19.187H2.181L2 18.087C3.364 17.676 5.909 15.074 5.909 11.563C5.909 5.49 7.557 3.855 10.809 3.578V2.129C10.8179 1.82158 10.9482 1.53019 11.1714 1.31861C11.3946 1.10702 11.6925 0.992466 12 0.999999Z" fill="#1C203C"/>
</mask>
<g mask="url(#mask0)">
<rect width="24" height="24" fill="#1C203C"/>
</g>
</svg>
