<svg width="24" height="24" viewBox="0 0 24 24" fill="none" xmlns="http://www.w3.org/2000/svg">
<path fill-rule="evenodd" clip-rule="evenodd" d="M11.022 12.644C10.8507 12.4554 10.7494 12.2137 10.7351 11.9593C10.7208 11.705 10.7944 11.4534 10.9435 11.2468C11.0926 11.0403 11.3081 10.8912 11.554 10.8246C11.8 10.758 12.0613 10.778 12.2942 10.8811C12.5272 10.9843 12.7176 11.1644 12.8336 11.3912C12.9496 11.618 12.9841 11.8778 12.9313 12.1271C12.8785 12.3763 12.7417 12.5999 12.5438 12.7602C12.3458 12.9206 12.0988 13.0081 11.844 13.008C11.6892 13.0079 11.5361 12.9755 11.3945 12.9129C11.253 12.8502 11.1261 12.7586 11.022 12.644ZM15.644 6.9C15.388 7.067 9.777 9.778 9.777 9.778C9.777 9.778 7.056 15.4 6.889 15.656C6.478 16.334 7.356 17.245 8 16.767C8.256 16.578 13.856 13.9 13.856 13.9C13.856 13.9 16.534 8.344 16.723 8.044C17.211 7.389 16.3 6.444 15.644 6.9ZM12 2C13.9778 2 15.9112 2.58649 17.5557 3.6853C19.2002 4.78412 20.4819 6.3459 21.2388 8.17317C21.9957 10.0004 22.1937 12.0111 21.8079 13.9509C21.422 15.8907 20.4696 17.6725 19.0711 19.0711C17.6725 20.4696 15.8907 21.422 13.9509 21.8079C12.0111 22.1937 10.0004 21.9957 8.17317 21.2388C6.3459 20.4819 4.78412 19.2002 3.6853 17.5557C2.58649 15.9112 2 13.9778 2 12C2 9.34784 3.05357 6.8043 4.92893 4.92893C6.8043 3.05357 9.34784 2 12 2Z" fill="black"/>
</svg>
