<svg xmlns="http://www.w3.org/2000/svg" viewBox="0 0 24 24">
  <path d="M18.75 15a1.25 1.25 0 110-2.5 1.25 1.25 0 010 2.5zm-13.5 0a1.25 1.25 0 110-2.5 1.25 1.25 0 010 2.5zm.864-8.422A1.668 1.668 0 017.672 5.5h8.656a1.666 1.666 0 011.557 1.075L19.35 10.5H4.663l1.451-3.922zM23 13.246a4.243 4.243 0 00-.354-1.688l-2.875-6.7A3 3 0 0017 3H7a3 3 0 00-2.772 1.857l-2.875 6.705A4.224 4.224 0 001 13.246V20a1 1 0 001 1h2a1 1 0 001-1v-2.525c.084 0 .165.025.25.025h13.5c.085 0 .166-.02.25-.025V20a1 1 0 001 1h2a1 1 0 001-1v-6.754z"/>
</svg>
