<svg width="24" height="24" viewBox="0 0 24 24" fill="none" xmlns="http://www.w3.org/2000/svg">
<path fill-rule="evenodd" clip-rule="evenodd" d="M18.933 6.156L12 13.079L5.067 6.156C5.02033 6.1073 4.96429 6.06855 4.90225 6.04207C4.84021 6.0156 4.77346 6.00195 4.706 6.00195C4.63855 6.00195 4.57179 6.0156 4.50975 6.04207C4.44771 6.06855 4.39167 6.1073 4.345 6.156L2.145 8.343C2.05058 8.43944 1.9977 8.56903 1.9977 8.704C1.9977 8.83897 2.05058 8.96856 2.145 9.065L9.445 16.365L11.632 18.552C11.7284 18.6464 11.858 18.6993 11.993 18.6993C12.128 18.6993 12.2576 18.6464 12.354 18.552L14.541 16.365L21.841 9.092C21.9354 8.99556 21.9883 8.86597 21.9883 8.731C21.9883 8.59603 21.9354 8.46644 21.841 8.37L19.641 6.152C19.5943 6.1033 19.5383 6.06455 19.4763 6.03807C19.4142 6.0116 19.3475 5.99795 19.28 5.99795C19.2125 5.99795 19.1458 6.0116 19.0838 6.03807C19.0217 6.06455 18.9657 6.1033 18.919 6.152L18.933 6.156Z" fill="black"/>
</svg>
