<svg width="24" height="24" viewBox="0 0 24 24" fill="none" xmlns="http://www.w3.org/2000/svg">
<path fill-rule="evenodd" clip-rule="evenodd" d="M5.067 18.548L12 11.625L18.933 18.548C18.9797 18.5967 19.0357 18.6355 19.0977 18.6619C19.1598 18.6884 19.2265 18.7021 19.294 18.7021C19.3615 18.7021 19.4282 18.6884 19.4902 18.6619C19.5523 18.6355 19.6083 18.5967 19.655 18.548L21.855 16.361C21.9494 16.2646 22.0023 16.135 22.0023 16C22.0023 15.865 21.9494 15.7354 21.855 15.639L14.555 8.339L12.368 6.152C12.2716 6.05758 12.142 6.00469 12.007 6.00469C11.872 6.00469 11.7424 6.05758 11.646 6.152L9.459 8.339L2.159 15.612C2.06457 15.7084 2.01169 15.838 2.01169 15.973C2.01169 16.108 2.06457 16.2376 2.159 16.334L4.359 18.552C4.40567 18.6007 4.46171 18.6395 4.52375 18.6659C4.58579 18.6924 4.65254 18.7061 4.72 18.7061C4.78745 18.7061 4.85421 18.6924 4.91625 18.6659C4.97829 18.6395 5.03433 18.6007 5.081 18.552L5.067 18.548Z" fill="black"/>
</svg>
