<svg width="24" height="24" viewBox="0 0 24 24" fill="none" xmlns="http://www.w3.org/2000/svg">
<mask id="mask0" mask-type="alpha" maskUnits="userSpaceOnUse" x="5" y="2" width="14" height="21">
<path fill-rule="evenodd" clip-rule="evenodd" d="M6.15699 5.419L13.08 12.352L6.15699 19.285C6.10828 19.3317 6.06953 19.3877 6.04306 19.4498C6.01658 19.5118 6.00293 19.5785 6.00293 19.646C6.00293 19.7135 6.01658 19.7802 6.04306 19.8423C6.06953 19.9043 6.10828 19.9603 6.15699 20.007L8.34399 22.207C8.44042 22.3014 8.57002 22.3543 8.70499 22.3543C8.83995 22.3543 8.96955 22.3014 9.06599 22.207L16.366 14.907L18.553 12.72C18.6474 12.6236 18.7003 12.494 18.7003 12.359C18.7003 12.224 18.6474 12.0944 18.553 11.998L16.366 9.811L9.09299 2.511C8.99655 2.41658 8.86695 2.3637 8.73199 2.3637C8.59702 2.3637 8.46742 2.41658 8.37099 2.511L6.15299 4.711C6.10428 4.75767 6.06553 4.81371 6.03906 4.87575C6.01258 4.93779 5.99893 5.00455 5.99893 5.072C5.99893 5.13946 6.01258 5.20621 6.03906 5.26825C6.06553 5.33029 6.10428 5.38633 6.15299 5.433L6.15699 5.419Z" fill="#1C203C"/>
</mask>
<g mask="url(#mask0)">
<rect width="24" height="24" fill="#1C203C"/>
</g>
</svg>
