<svg width="24" height="24" viewBox="0 0 24 24" fill="none" xmlns="http://www.w3.org/2000/svg">
<mask id="mask0" mask-type="alpha" maskUnits="userSpaceOnUse" x="15" y="5" width="9" height="14">
<path fill-rule="evenodd" clip-rule="evenodd" d="M15.11 7.14599L19.956 11.999L15.11 16.852C15.0754 16.8844 15.0479 16.9236 15.029 16.9671C15.0102 17.0107 15.0005 17.0576 15.0005 17.105C15.0005 17.1524 15.0102 17.1993 15.029 17.2428C15.0479 17.2863 15.0754 17.3255 15.11 17.358L16.641 18.896C16.7085 18.9623 16.7994 18.9995 16.894 18.9995C16.9886 18.9995 17.0795 18.9623 17.147 18.896L22.26 13.783L23.791 12.252C23.8573 12.1845 23.8945 12.0936 23.8945 11.999C23.8945 11.9044 23.8573 11.8135 23.791 11.746L22.26 10.215L17.168 5.10599C17.1005 5.03967 17.0096 5.0025 16.915 5.0025C16.8204 5.0025 16.7295 5.03967 16.662 5.10599L15.11 6.63999C15.0754 6.67244 15.0479 6.71164 15.029 6.75515C15.0102 6.79866 15.0005 6.84558 15.0005 6.89299C15.0005 6.94041 15.0102 6.98732 15.029 7.03083C15.0479 7.07435 15.0754 7.11354 15.11 7.14599Z" fill="#1C203C"/>
</mask>
<g mask="url(#mask0)">
<rect width="24" height="24" fill="#1C203C"/>
</g>
</svg>
