<svg width="24" height="24" viewBox="0 0 24 24" fill="none" xmlns="http://www.w3.org/2000/svg">
<path fill-rule="evenodd" clip-rule="evenodd" d="M8.11 7.147L12.956 12L8.11 16.853C8.07543 16.8855 8.04788 16.9246 8.02904 16.9682C8.01021 17.0117 8.00049 17.0586 8.00049 17.106C8.00049 17.1534 8.01021 17.2003 8.02904 17.2438C8.04788 17.2874 8.07543 17.3265 8.11 17.359L9.641 18.897C9.70851 18.9633 9.79936 19.0005 9.894 19.0005C9.98864 19.0005 10.0795 18.9633 10.147 18.897L15.26 13.784L16.791 12.253C16.8573 12.1855 16.8945 12.0946 16.8945 12C16.8945 11.9054 16.8573 11.8145 16.791 11.747L15.26 10.216L10.168 5.107C10.1005 5.04067 10.0096 5.00351 9.915 5.00351C9.82036 5.00351 9.72951 5.04067 9.662 5.107L8.11 6.641C8.07543 6.67345 8.04788 6.71264 8.02904 6.75616C8.01021 6.79967 8.00049 6.84658 8.00049 6.894C8.00049 6.94141 8.01021 6.98833 8.02904 7.03184C8.04788 7.07536 8.07543 7.11455 8.11 7.147Z" fill="black"/>
</svg>
