<svg width="24" height="24" viewBox="0 0 24 24" fill="none" xmlns="http://www.w3.org/2000/svg">
<mask id="mask0" mask-type="alpha" maskUnits="userSpaceOnUse" x="5" y="2" width="14" height="21">
<path fill-rule="evenodd" clip-rule="evenodd" d="M18.196 19.285L11.273 12.352L18.196 5.41901C18.2447 5.37234 18.2835 5.3163 18.3099 5.25426C18.3364 5.19222 18.35 5.12546 18.35 5.05801C18.35 4.99055 18.3364 4.9238 18.3099 4.86176C18.2835 4.79972 18.2447 4.74368 18.196 4.69701L16.009 2.49701C15.9126 2.40258 15.783 2.3497 15.648 2.3497C15.513 2.3497 15.3834 2.40258 15.287 2.49701L7.987 9.79701L5.8 11.984C5.70557 12.0804 5.65269 12.21 5.65269 12.345C5.65269 12.48 5.70557 12.6096 5.8 12.706L7.987 14.893L15.26 22.193C15.3564 22.2874 15.486 22.3403 15.621 22.3403C15.756 22.3403 15.8856 22.2874 15.982 22.193L18.2 19.993C18.2487 19.9463 18.2875 19.8903 18.3139 19.8283C18.3404 19.7662 18.354 19.6995 18.354 19.632C18.354 19.5646 18.3404 19.4978 18.3139 19.4358C18.2875 19.3737 18.2487 19.3177 18.2 19.271L18.196 19.285Z" fill="#1C203C"/>
</mask>
<g mask="url(#mask0)">
<rect width="24" height="24" fill="#1C203C"/>
</g>
</svg>
