<svg width="24" height="24" viewBox="0 0 24 24" fill="none" xmlns="http://www.w3.org/2000/svg">
<mask id="mask0" mask-type="alpha" maskUnits="userSpaceOnUse" x="10" y="2" width="14" height="21">
<path fill-rule="evenodd" clip-rule="evenodd" d="M11.157 5.06601L18.08 11.999L11.157 18.932C11.1083 18.9787 11.0695 19.0347 11.0431 19.0968C11.0166 19.1588 11.0029 19.2256 11.0029 19.293C11.0029 19.3605 11.0166 19.4272 11.0431 19.4893C11.0695 19.5513 11.1083 19.6073 11.157 19.654L13.344 21.854C13.4404 21.9484 13.57 22.0013 13.705 22.0013C13.84 22.0013 13.9695 21.9484 14.066 21.854L21.366 14.554L23.553 12.367C23.6474 12.2706 23.7003 12.141 23.7003 12.006C23.7003 11.871 23.6474 11.7414 23.553 11.645L21.366 9.45801L14.093 2.158C13.9965 2.06358 13.867 2.0107 13.732 2.0107C13.597 2.0107 13.4674 2.06358 13.371 2.158L11.153 4.35801C11.1043 4.40468 11.0655 4.46072 11.0391 4.52276C11.0126 4.5848 10.9989 4.65155 10.9989 4.71901C10.9989 4.78646 11.0126 4.85321 11.0391 4.91525C11.0655 4.97729 11.1043 5.03333 11.153 5.08001L11.157 5.06601Z" fill="#1C203C"/>
</mask>
<g mask="url(#mask0)">
<rect width="24" height="24" fill="#1C203C"/>
</g>
</svg>
