<svg width="24" height="24" viewBox="0 0 24 24" fill="none" xmlns="http://www.w3.org/2000/svg">
<mask id="mask0" mask-type="alpha" maskUnits="userSpaceOnUse" x="0" y="2" width="14" height="21">
<path fill-rule="evenodd" clip-rule="evenodd" d="M13.196 19.285L6.27301 12.352L13.196 5.41901C13.2447 5.37234 13.2835 5.3163 13.3099 5.25426C13.3364 5.19222 13.3501 5.12546 13.3501 5.05801C13.3501 4.99055 13.3364 4.9238 13.3099 4.86176C13.2835 4.79972 13.2447 4.74368 13.196 4.69701L11.009 2.49701C10.9126 2.40258 10.783 2.3497 10.648 2.3497C10.513 2.3497 10.3834 2.40258 10.287 2.49701L2.98701 9.79701L0.800011 11.984C0.705585 12.0804 0.652704 12.21 0.652704 12.345C0.652704 12.48 0.705585 12.6096 0.800011 12.706L2.98701 14.893L10.26 22.193C10.3564 22.2874 10.486 22.3403 10.621 22.3403C10.756 22.3403 10.8856 22.2874 10.982 22.193L13.2 19.993C13.2487 19.9463 13.2875 19.8903 13.3139 19.8283C13.3404 19.7662 13.3541 19.6995 13.3541 19.632C13.3541 19.5646 13.3404 19.4978 13.3139 19.4358C13.2875 19.3737 13.2487 19.3177 13.2 19.271L13.196 19.285Z" fill="#1C203C"/>
</mask>
<g mask="url(#mask0)">
<rect width="24" height="24" fill="#1C203C"/>
</g>
</svg>
