<svg width="24" height="24" viewBox="0 0 24 24" fill="none" xmlns="http://www.w3.org/2000/svg">
<path fill-rule="evenodd" clip-rule="evenodd" d="M16.853 8.11L12 12.956L7.147 8.11C7.11455 8.07543 7.07536 8.04788 7.03184 8.02904C6.98833 8.01021 6.94142 8.00049 6.894 8.00049C6.84659 8.00049 6.79967 8.01021 6.75616 8.02904C6.71264 8.04788 6.67345 8.07543 6.641 8.11L5.103 9.641C5.03668 9.70851 4.99951 9.79936 4.99951 9.894C4.99951 9.98864 5.03668 10.0795 5.103 10.147L10.216 15.26L11.747 16.791C11.8145 16.8573 11.9054 16.8945 12 16.8945C12.0946 16.8945 12.1855 16.8573 12.253 16.791L13.784 15.26L18.893 10.168C18.9593 10.1005 18.9965 10.0096 18.9965 9.915C18.9965 9.82036 18.9593 9.72951 18.893 9.662L17.359 8.11C17.3265 8.07543 17.2874 8.04788 17.2438 8.02904C17.2003 8.01021 17.1534 8.00049 17.106 8.00049C17.0586 8.00049 17.0117 8.01021 16.9682 8.02904C16.9246 8.04788 16.8855 8.07543 16.853 8.11Z" fill="black"/>
</svg>
