<svg width="24" height="24" viewBox="0 0 24 24" fill="none" xmlns="http://www.w3.org/2000/svg">
<mask id="mask0" mask-type="alpha" maskUnits="userSpaceOnUse" x="5" y="7" width="15" height="10">
<path fill-rule="evenodd" clip-rule="evenodd" d="M7.593 16.337L12.446 11.491L17.299 16.337C17.3314 16.3716 17.3706 16.3991 17.4142 16.4179C17.4577 16.4368 17.5046 16.4465 17.552 16.4465C17.5994 16.4465 17.6463 16.4368 17.6898 16.4179C17.7334 16.3991 17.7725 16.3716 17.805 16.337L19.343 14.806C19.4093 14.7385 19.4465 14.6476 19.4465 14.553C19.4465 14.4584 19.4093 14.3675 19.343 14.3L14.23 9.18699L12.699 7.65599C12.6315 7.58967 12.5406 7.5525 12.446 7.5525C12.3514 7.5525 12.2605 7.58967 12.193 7.65599L10.662 9.18699L5.553 14.279C5.48667 14.3465 5.44951 14.4374 5.44951 14.532C5.44951 14.6266 5.48667 14.7175 5.553 14.785L7.087 16.337C7.11945 16.3716 7.15864 16.3991 7.20216 16.4179C7.24567 16.4368 7.29258 16.4465 7.34 16.4465C7.38741 16.4465 7.43433 16.4368 7.47784 16.4179C7.52135 16.3991 7.56055 16.3716 7.593 16.337Z" fill="#1C203C"/>
</mask>
<g mask="url(#mask0)">
<rect width="24" height="24" fill="#1C203C"/>
</g>
</svg>
