<svg width="24" height="24" viewBox="0 0 24 24" fill="none" xmlns="http://www.w3.org/2000/svg">
<mask id="mask0" mask-type="alpha" maskUnits="userSpaceOnUse" x="7" y="4" width="10" height="15">
<path fill-rule="evenodd" clip-rule="evenodd" d="M16.784 16.853L11.938 12L16.784 7.147C16.8186 7.11455 16.8461 7.07536 16.865 7.03184C16.8838 6.98833 16.8935 6.94142 16.8935 6.894C16.8935 6.84659 16.8838 6.79967 16.865 6.75616C16.8461 6.71264 16.8186 6.67345 16.784 6.641L15.253 5.103C15.1855 5.03668 15.0946 4.99951 15 4.99951C14.9054 4.99951 14.8145 5.03668 14.747 5.103L9.63401 10.216L8.10301 11.747C8.03669 11.8145 7.99952 11.9054 7.99952 12C7.99952 12.0946 8.03669 12.1855 8.10301 12.253L9.63401 13.784L14.726 18.893C14.7935 18.9593 14.8844 18.9965 14.979 18.9965C15.0736 18.9965 15.1645 18.9593 15.232 18.893L16.784 17.359C16.8186 17.3265 16.8461 17.2874 16.865 17.2438C16.8838 17.2003 16.8935 17.1534 16.8935 17.106C16.8935 17.0586 16.8838 17.0117 16.865 16.9682C16.8461 16.9246 16.8186 16.8855 16.784 16.853Z" fill="#1C203C"/>
</mask>
<g mask="url(#mask0)">
<rect width="24" height="24" fill="#1C203C"/>
</g>
</svg>
