<svg width="24" height="24" viewBox="0 0 24 24" fill="none" xmlns="http://www.w3.org/2000/svg">
<g clip-path="url(#clip0)">
<mask id="mask0" mask-type="alpha" maskUnits="userSpaceOnUse" x="-1" y="4" width="10" height="15">
<path fill-rule="evenodd" clip-rule="evenodd" d="M8.78401 16.853L3.93801 12L8.78401 7.147C8.81858 7.11455 8.84614 7.07536 8.86497 7.03184C8.88381 6.98833 8.89352 6.94142 8.89352 6.894C8.89352 6.84659 8.88381 6.79967 8.86497 6.75616C8.84614 6.71264 8.81858 6.67345 8.78401 6.641L7.25301 5.103C7.1855 5.03668 7.09465 4.99951 7.00001 4.99951C6.90537 4.99951 6.81452 5.03668 6.74701 5.103L1.63401 10.216L0.103012 11.747C0.0366869 11.8145 -0.000476837 11.9054 -0.000476837 12C-0.000476837 12.0946 0.0366869 12.1855 0.103012 12.253L1.63401 13.784L6.72601 18.893C6.79352 18.9593 6.88437 18.9965 6.97901 18.9965C7.07365 18.9965 7.1645 18.9593 7.23201 18.893L8.78401 17.359C8.81858 17.3265 8.84614 17.2874 8.86497 17.2438C8.88381 17.2003 8.89352 17.1534 8.89352 17.106C8.89352 17.0586 8.88381 17.0117 8.86497 16.9682C8.84614 16.9246 8.81858 16.8855 8.78401 16.853Z" fill="#1C203C"/>
</mask>
<g mask="url(#mask0)">
<rect width="24" height="24" fill="#1C203C"/>
</g>
</g>
<defs>
<clipPath id="clip0">
<rect width="24" height="24" fill="white"/>
</clipPath>
</defs>
</svg>
