<svg width="24" height="24" viewBox="0 0 24 24" fill="none" xmlns="http://www.w3.org/2000/svg">
<g clip-path="url(#clip0)">
<path fill-rule="evenodd" clip-rule="evenodd" d="M8.784 16.853L3.938 12L8.784 7.147C8.81857 7.11455 8.84612 7.07536 8.86496 7.03184C8.88379 6.98833 8.89351 6.94142 8.89351 6.894C8.89351 6.84659 8.88379 6.79967 8.86496 6.75616C8.84612 6.71264 8.81857 6.67345 8.784 6.641L7.253 5.103C7.18549 5.03668 7.09463 4.99951 7 4.99951C6.90536 4.99951 6.8145 5.03668 6.747 5.103L1.634 10.216L0.102997 11.747C0.0366716 11.8145 -0.000492096 11.9054 -0.000492096 12C-0.000492096 12.0946 0.0366716 12.1855 0.102997 12.253L1.634 13.784L6.726 18.893C6.7935 18.9593 6.88436 18.9965 6.979 18.9965C7.07363 18.9965 7.16449 18.9593 7.232 18.893L8.784 17.359C8.81857 17.3265 8.84612 17.2874 8.86496 17.2438C8.88379 17.2003 8.89351 17.1534 8.89351 17.106C8.89351 17.0586 8.88379 17.0117 8.86496 16.9682C8.84612 16.9246 8.81857 16.8855 8.784 16.853Z" fill="black"/>
</g>
<defs>
<clipPath id="clip0">
<rect width="24" height="24" fill="white"/>
</clipPath>
</defs>
</svg>
