<svg width="24" height="24" viewBox="0 0 24 24" fill="none" xmlns="http://www.w3.org/2000/svg">
<mask id="mask0" mask-type="alpha" maskUnits="userSpaceOnUse" x="2" y="6" width="21" height="13">
<path fill-rule="evenodd" clip-rule="evenodd" d="M5.06701 18.548L12 11.625L18.933 18.548C18.9797 18.5967 19.0357 18.6355 19.0978 18.6619C19.1598 18.6884 19.2266 18.7021 19.294 18.7021C19.3615 18.7021 19.4282 18.6884 19.4903 18.6619C19.5523 18.6355 19.6083 18.5967 19.655 18.548L21.855 16.361C21.9494 16.2646 22.0023 16.135 22.0023 16C22.0023 15.865 21.9494 15.7354 21.855 15.639L14.555 8.339L12.368 6.152C12.2716 6.05758 12.142 6.00469 12.007 6.00469C11.872 6.00469 11.7425 6.05758 11.646 6.152L9.45901 8.339L2.15901 15.612C2.06459 15.7084 2.01171 15.838 2.01171 15.973C2.01171 16.108 2.06459 16.2376 2.15901 16.334L4.35901 18.552C4.40568 18.6007 4.46172 18.6395 4.52376 18.6659C4.5858 18.6924 4.65256 18.7061 4.72001 18.7061C4.78747 18.7061 4.85422 18.6924 4.91626 18.6659C4.9783 18.6395 5.03434 18.6007 5.08101 18.552L5.06701 18.548Z" fill="#1C203C"/>
</mask>
<g mask="url(#mask0)">
<rect width="24" height="24" fill="#1C203C"/>
</g>
</svg>
