<svg width="24" height="24" viewBox="0 0 24 24" fill="none" xmlns="http://www.w3.org/2000/svg">
<mask id="mask0" mask-type="alpha" maskUnits="userSpaceOnUse" x="1" y="5" width="21" height="14">
<path fill-rule="evenodd" clip-rule="evenodd" d="M18.933 6.15599L12 13.079L5.067 6.15599C5.02033 6.10729 4.96429 6.06854 4.90225 6.04206C4.84021 6.01559 4.77346 6.00194 4.706 6.00194C4.63855 6.00194 4.57179 6.01559 4.50975 6.04206C4.44771 6.06854 4.39167 6.10729 4.345 6.15599L2.145 8.34299C2.05058 8.43943 1.9977 8.56903 1.9977 8.70399C1.9977 8.83896 2.05058 8.96856 2.145 9.06499L9.445 16.365L11.632 18.552C11.7284 18.6464 11.858 18.6993 11.993 18.6993C12.128 18.6993 12.2576 18.6464 12.354 18.552L14.541 16.365L21.841 9.09199C21.9354 8.99556 21.9883 8.86596 21.9883 8.73099C21.9883 8.59603 21.9354 8.46643 21.841 8.36999L19.641 6.15199C19.5943 6.10329 19.5383 6.06454 19.4763 6.03806C19.4142 6.01159 19.3475 5.99794 19.28 5.99794C19.2125 5.99794 19.1458 6.01159 19.0838 6.03806C19.0217 6.06454 18.9657 6.10329 18.919 6.15199L18.933 6.15599Z" fill="#1C203C"/>
</mask>
<g mask="url(#mask0)">
<rect width="24" height="24" fill="#1C203C"/>
</g>
</svg>
