<svg width="24" height="24" viewBox="0 0 24 24" fill="none" xmlns="http://www.w3.org/2000/svg">
<mask id="mask0" mask-type="alpha" maskUnits="userSpaceOnUse" x="6" y="6" width="12" height="12">
<path fill-rule="evenodd" clip-rule="evenodd" d="M11.9991 10.1987L8.18073 6.38032C8.15094 6.3496 8.11533 6.32512 8.07597 6.30831C8.03662 6.29151 7.99431 6.28272 7.95151 6.28246C7.90872 6.28219 7.8663 6.29046 7.82674 6.30678C7.78718 6.3231 7.75127 6.34714 7.72111 6.3775L6.37761 7.721C6.31722 7.78139 6.28329 7.86329 6.28329 7.94869C6.28329 8.03409 6.31722 8.11599 6.37761 8.17638L10.196 11.9948L6.37761 15.8131C6.31722 15.8735 6.28329 15.9554 6.28329 16.0408C6.28329 16.1262 6.31722 16.2081 6.37761 16.2685L7.72111 17.612C7.7815 17.6724 7.8634 17.7063 7.9488 17.7063C8.0342 17.7063 8.1161 17.6724 8.17649 17.612L11.9949 13.7936L15.8132 17.612C15.8736 17.6724 15.9555 17.7063 16.0409 17.7063C16.1263 17.7063 16.2082 17.6724 16.2686 17.612L17.6121 16.2685C17.6725 16.2081 17.7064 16.1262 17.7064 16.0408C17.7064 15.9554 17.6725 15.8735 17.6121 15.8131L13.7937 11.9948L17.6121 8.17638C17.6725 8.11599 17.7064 8.03409 17.7064 7.94869C17.7064 7.86329 17.6725 7.78139 17.6121 7.721L16.2729 6.38174C16.2125 6.32135 16.1306 6.28743 16.0452 6.28743C15.9598 6.28743 15.8779 6.32135 15.8175 6.38174L11.9991 10.1987Z" fill="#1C203C"/>
</mask>
<g mask="url(#mask0)">
<rect width="24" height="24" fill="#1C203C"/>
</g>
</svg>
