<svg viewBox="0 0 24 24" xmlns="http://www.w3.org/2000/svg">
    <path d="M16.7924 5.08787C16.6752 4.97071 16.4853 4.97071 16.3681 5.08787L14.671 6.78492C14.5539 6.90208 14.5539 7.09203 14.671 7.20919L17.0752 9.61335C17.1924 9.73051 17.3823 9.73051 17.4995 9.61335L19.1965 7.9163C19.3137 7.79914 19.3137 7.60919 19.1965 7.49203L16.7924 5.08787ZM5.08787 16.3681C5.03161 16.4244 5 16.5007 5 16.5802V18.9844C5 19.1501 5.13432 19.2844 5.3 19.2844L7.70416 19.2844C7.78373 19.2844 7.86003 19.2528 7.91629 19.1965L16.2448 10.868C16.362 10.7508 16.362 10.5609 16.2448 10.4437L13.8407 8.03957C13.7235 7.92241 13.5336 7.92241 13.4164 8.03957L5.08787 16.3681Z" />
</svg>
