<svg width="24" height="24" viewBox="0 0 24 24" fill="none" xmlns="http://www.w3.org/2000/svg">
<path fill-rule="evenodd" clip-rule="evenodd" d="M7.157 3.033C6.50064 3.03184 5.85078 3.16292 5.24618 3.4184C4.64158 3.67388 4.09465 4.04853 3.638 4.52C2.58642 5.63465 2.00067 7.1091 2.00067 8.6415C2.00067 10.1739 2.58642 11.6484 3.638 12.763L11.61 21.063C11.7138 21.1664 11.8544 21.2245 12.001 21.2245C12.1476 21.2245 12.2882 21.1664 12.392 21.063L20.364 12.763C21.4156 11.6484 22.0013 10.1739 22.0013 8.6415C22.0013 7.1091 21.4156 5.63465 20.364 4.52C19.9105 4.04285 19.3646 3.66291 18.7597 3.40329C18.1547 3.14368 17.5033 3.0098 16.845 3.0098C16.1867 3.0098 15.5353 3.14368 14.9303 3.40329C14.3254 3.66291 13.7795 4.04285 13.326 4.52L12 5.932L10.675 4.52C10.2221 4.04166 9.6767 3.66028 9.07198 3.399C8.46725 3.13772 7.81576 3.00198 7.157 3" fill="black"/>
</svg>
