<svg xmlns="http://www.w3.org/2000/svg" viewBox="0 0 24 24">
  <path d="M7.157 5.748a2.172 2.172 0 011.586.684l1.3 1.347 1.955 2.063 1.955-2.063 1.3-1.336a2.13 2.13 0 013.128 0 3.258 3.258 0 010 4.475l-6.386 6.636-6.402-6.648a3.258 3.258 0 010-4.475 2.172 2.172 0 011.553-.684l.011.001zm-.011-2.715A4.887 4.887 0 003.638 4.52a6.006 6.006 0 000 8.243l7.972 8.3a.554.554 0 00.782 0l7.972-8.3a6.006 6.006 0 000-8.243 4.855 4.855 0 00-7.038 0L12 5.932 10.675 4.52A4.865 4.865 0 007.157 3l-.011.033z"/>
</svg>
