<svg width="24" height="24" viewBox="0 0 24 24" fill="none" xmlns="http://www.w3.org/2000/svg">
<path fill-rule="evenodd" clip-rule="evenodd" d="M7.96416 4.5275C7.4172 4.52654 6.87564 4.63576 6.37181 4.84866C5.86798 5.06156 5.4122 5.37377 5.03166 5.76667C4.15534 6.69554 3.66722 7.92425 3.66722 9.20125C3.66722 10.4783 4.15534 11.707 5.03166 12.6358L11.675 19.5525C11.7615 19.6387 11.8787 19.6871 12.0008 19.6871C12.123 19.6871 12.2401 19.6387 12.3267 19.5525L18.97 12.6358C19.8463 11.707 20.3344 10.4783 20.3344 9.20125C20.3344 7.92425 19.8463 6.69554 18.97 5.76667C18.5921 5.36904 18.1372 5.05243 17.6331 4.83608C17.1289 4.61973 16.5861 4.50816 16.0375 4.50816C15.4889 4.50816 14.9461 4.61973 14.4419 4.83608C13.9378 5.05243 13.4829 5.36904 13.105 5.76667L12 6.94333L10.8958 5.76667C10.5184 5.36805 10.0639 5.05024 9.55997 4.8325C9.05604 4.61477 8.51313 4.50165 7.96416 4.5" fill="black"/>
</svg>
