<svg xmlns="http://www.w3.org/2000/svg" viewBox="0 0 24 24">
  <path d="M7.964 6.79a1.81 1.81 0 011.322.57l1.083 1.122 1.63 1.72 1.628-1.72 1.084-1.113a1.775 1.775 0 012.606 0 2.715 2.715 0 010 3.73l-5.321 5.53-5.335-5.54a2.715 2.715 0 010-3.73 1.81 1.81 0 011.294-.57l.01.001zm-.009-2.263a4.073 4.073 0 00-2.923 1.24 5.005 5.005 0 000 6.869l6.643 6.916a.462.462 0 00.652 0l6.643-6.916a5.005 5.005 0 000-6.87 4.046 4.046 0 00-5.865 0L12 6.944l-1.104-1.176A4.054 4.054 0 007.964 4.5l-.009.027z"/>
</svg>
