<svg xmlns="http://www.w3.org/2000/svg" viewBox="0 0 24 24">
  <path d="M17.413 8.723a.18.18 0 01.246 0l2.487 2.486.746.727a.174.174 0 01.041.196.174.174 0 01-.04.057l-3.234 3.234a.18.18 0 01-.246 0l-.747-.747a.167.167 0 010-.247l2.36-2.366-2.36-2.367a.167.167 0 010-.227l.747-.746zm-11.94-.18a1.901 1.901 0 012.133 1.906 1.567 1.567 0 01-.8 1.427 1.507 1.507 0 01.906 1.427 2.01 2.01 0 01-2.24 2 2.234 2.234 0 01-2.42-2.094h1.334a.993.993 0 001.066.974.861.861 0 00.947-.867c0-.553-.427-.887-1.033-.887h-.42v-1.086h.373c.553 0 .98-.28.98-.82a.793.793 0 00-.853-.814.907.907 0 00-.96.9H3.152a2.22 2.22 0 012.32-2.066zm5.453.006c1.533 0 2.58 1.387 2.58 3.38 0 1.994-1.047 3.38-2.56 3.38-1.514 0-2.6-1.386-2.6-3.38 0-1.993 1.046-3.38 2.58-3.38zm0 1.214c-.873 0-1.247.953-1.247 2.166 0 1.214.36 2.167 1.247 2.167.886 0 1.246-.953 1.246-2.167 0-1.213-.373-2.166-1.246-2.166z"/>
</svg>
