<svg xmlns="http://www.w3.org/2000/svg" viewBox="0 0 24 24">
  <path d="M16.06 9.542a.135.135 0 01.184 0l1.865 1.865.56.545a.131.131 0 01.03.147.131.131 0 01-.03.043l-2.425 2.425a.135.135 0 01-.185 0l-.56-.56a.126.126 0 01-.03-.143.126.126 0 01.03-.042l1.77-1.775-1.77-1.775a.125.125 0 010-.17l.56-.56zm-8.956-.135a1.426 1.426 0 011.6 1.43 1.175 1.175 0 01-.6 1.07 1.13 1.13 0 01.68 1.07 1.508 1.508 0 01-1.68 1.5 1.676 1.676 0 01-1.815-1.57h1a.745.745 0 00.8.73.644.644 0 00.71-.65c0-.415-.32-.665-.775-.665H6.71v-.815h.28c.415 0 .735-.21.735-.615a.595.595 0 00-.64-.61.68.68 0 00-.72.675h-1a1.665 1.665 0 011.74-1.55zm4.09.005c1.15 0 1.935 1.04 1.935 2.535s-.785 2.535-1.92 2.535c-1.135 0-1.95-1.04-1.95-2.535s.785-2.535 1.935-2.535zm0 .91c-.655 0-.935.715-.935 1.625s.27 1.625.935 1.625.935-.715.935-1.625-.28-1.625-.935-1.625z"/>
</svg>
