<svg xmlns="http://www.w3.org/2000/svg" viewBox="0 0 24 24">
  <path d="M14.963 19.709a13.386 13.386 0 002.17-4.4c1.088-.1 1.95-.209 2.559-.3a8.3 8.3 0 01-4.729 4.7zM4.306 15c.612.091 1.479.2 2.559.3a13.4 13.4 0 002.171 4.407A8.3 8.3 0 014.306 15zM9.087 4.271a13.91 13.91 0 00-2.2 4.419c-1.1.1-1.964.21-2.577.3a8.3 8.3 0 014.777-4.719zM19.694 9c-.616-.092-1.488-.2-2.577-.3a13.918 13.918 0 00-2.2-4.425A8.3 8.3 0 0119.694 9zm-2.275 1.04c1.275.125 2.2.266 2.682.347a8.255 8.255 0 010 3.233c-.475.083-1.39.224-2.676.35.105-.651.158-1.31.158-1.97 0-.657-.055-1.314-.164-1.962v.002zm-4.767 4.179V9.782c1.265.014 2.413.069 3.416.141.139.684.21 1.38.21 2.077 0 .699-.067 1.396-.2 2.082-1 .071-2.144.123-3.423.137h-.003zM11.355 3.767v4.71a60.46 60.46 0 00-3.058.108 13.223 13.223 0 012.923-4.808l.135-.01zm1.441.01a13.122 13.122 0 012.926 4.812c-.918-.058-1.944-.1-3.062-.112v-4.71l.137.01h-.001zM7.722 12c0-.7.072-1.397.212-2.082.995-.07 2.139-.123 3.414-.136v4.437a55.877 55.877 0 01-3.424-.142A10.864 10.864 0 017.722 12zm-3.983 0c0-.543.054-1.085.16-1.618a36.813 36.813 0 012.683-.351c-.11.65-.165 1.31-.165 1.969 0 .657.053 1.313.157 1.962a36.899 36.899 0 01-2.674-.347A8.276 8.276 0 013.739 12zm7.461 8.222a12.484 12.484 0 01-2.932-4.812c.923.059 1.954.1 3.08.114v4.709l-.146-.011H11.2zm1.602 0l-.146.011v-4.71a59.942 59.942 0 003.079-.109 12.482 12.482 0 01-2.935 4.808h.002zM12 2a10 10 0 1010 10A10.01 10.01 0 0012 2z"/>
</svg>
