<svg xmlns="http://www.w3.org/2000/svg" viewBox="0 0 24 24">
  <path d="M17.311 18.047a.54.54 0 00.762-.762L6.435 5.655a.541.541 0 00-.769.762l11.645 11.63zM17.963 16c2.021-1.34 3.333-3.179 3.333-4 0-1.406-3.831-5.9-9.4-5.9a10.271 10.271 0 00-3.281.535l1.833 1.832a3.69 3.69 0 011.45-.293A3.825 3.825 0 0115.751 12c.003.498-.105.991-.315 1.443L17.963 16zm-6.064 1.9a10.069 10.069 0 003.508-.615l-1.846-1.846a3.616 3.616 0 01-1.663.4A3.864 3.864 0 018.046 12a3.8 3.8 0 01.388-1.68L6.024 7.9c-2.175 1.366-3.53 3.277-3.53 4.1 0 1.4 3.906 5.908 9.406 5.908l-.001-.008zm2.212-6.05a2.187 2.187 0 00-2.2-2.19 1.34 1.34 0 00-.249.015l2.438 2.44c0-.081.01-.169.01-.257l.001-.008zm-4.424.007a2.216 2.216 0 002.483 2.185L9.7 11.58c-.006.095-.013.191-.013.286v-.009z"/>
</svg>
