<svg width="24" height="24" viewBox="0 0 24 24" fill="none" xmlns="http://www.w3.org/2000/svg">
<mask id="mask0" mask-type="alpha" maskUnits="userSpaceOnUse" x="1" y="1" width="22" height="21">
<path fill-rule="evenodd" clip-rule="evenodd" d="M22.446 11.362L13.666 2.58201L12.286 1.19101C12.1611 1.06867 11.9933 1.00015 11.8185 1.00015C11.6437 1.00015 11.4759 1.06867 11.351 1.19101L9.971 2.58101L1.191 11.361C1.06936 11.484 1.00113 11.65 1.00113 11.823C1.00113 11.996 1.06936 12.162 1.191 12.285L2.571 13.665C2.694 13.7867 2.86001 13.8549 3.033 13.8549C3.206 13.8549 3.37201 13.7867 3.49501 13.665L4.60801 12.552V20.342C4.60625 20.4287 4.62197 20.5148 4.65421 20.5953C4.68646 20.6758 4.73457 20.749 4.79569 20.8105C4.85681 20.872 4.92969 20.9205 5.00997 20.9533C5.09026 20.986 5.17631 21.0022 5.263 21.001H9.203C9.28969 21.0025 9.37579 20.9865 9.45618 20.954C9.53656 20.9215 9.60958 20.8732 9.67089 20.8119C9.7322 20.7506 9.78054 20.6776 9.81303 20.5972C9.84552 20.5168 9.86149 20.4307 9.86 20.344V14.444H13.777V20.344C13.7755 20.4307 13.7915 20.5168 13.824 20.5972C13.8565 20.6776 13.9048 20.7506 13.9661 20.8119C14.0274 20.8732 14.1004 20.9215 14.1808 20.954C14.2612 20.9865 14.3473 21.0025 14.434 21.001H18.351C18.4377 21.0025 18.5238 20.9865 18.6042 20.954C18.6846 20.9215 18.7576 20.8732 18.8189 20.8119C18.8802 20.7506 18.9285 20.6776 18.961 20.5972C18.9935 20.5168 19.0095 20.4307 19.008 20.344V12.554L20.121 13.666C20.244 13.7877 20.41 13.8559 20.583 13.8559C20.756 13.8559 20.922 13.7877 21.045 13.666L22.425 12.286C22.5496 12.1659 22.6218 12.0015 22.626 11.8285C22.6301 11.6555 22.5658 11.4879 22.447 11.362H22.446Z" fill="#1C203C"/>
</mask>
<g mask="url(#mask0)">
<rect width="24" height="24" fill="#1C203C"/>
</g>
</svg>
