<svg xmlns="http://www.w3.org/2000/svg" viewBox="0 0 24 24">
  <path d="M16.631 15.762l-.658-.658a.472.472 0 010-.658l2.4-2.389-2.437-2.425a.472.472 0 010-.658l.695-.621a.472.472 0 01.658 0l3.408 3.417a.445.445 0 010 .648l-3.445 3.344a.472.472 0 01-.621 0zm-9.261 0l.658-.658a.472.472 0 000-.658l-2.4-2.384 2.436-2.43a.472.472 0 000-.658l-.695-.621a.472.472 0 00-.658 0l-3.371 3.38a.445.445 0 000 .648l3.409 3.381a.472.472 0 00.621 0zm3.6.926l3.7-8.678a.462.462 0 00-.241-.611l-.852-.361a.463.463 0 00-.611.241l-3.698 8.683a.463.463 0 00.241.611l.852.361a.463.463 0 00.648-.167l-.039-.079z"/>
</svg>
