<svg width="24" height="24" viewBox="0 0 24 24" fill="none" xmlns="http://www.w3.org/2000/svg">
<mask id="mask0" mask-type="alpha" maskUnits="userSpaceOnUse" x="3" y="6" width="18" height="12">
<path fill-rule="evenodd" clip-rule="evenodd" d="M16.631 15.762L15.973 15.104C15.8874 15.0159 15.8394 14.8979 15.8394 14.775C15.8394 14.6521 15.8874 14.5341 15.973 14.446L18.373 12.057L15.936 9.63201C15.8504 9.54391 15.8024 9.42588 15.8024 9.30301C15.8024 9.18014 15.8504 9.06211 15.936 8.97401L16.631 8.35301C16.7191 8.26736 16.8371 8.21945 16.96 8.21945C17.0829 8.21945 17.2009 8.26736 17.289 8.35301L20.697 11.77C20.7412 11.8116 20.7764 11.8618 20.8005 11.9175C20.8245 11.9733 20.837 12.0333 20.837 12.094C20.837 12.1547 20.8245 12.2148 20.8005 12.2705C20.7764 12.3262 20.7412 12.3764 20.697 12.418L17.252 15.762C17.166 15.8371 17.0557 15.8785 16.9415 15.8785C16.8273 15.8785 16.717 15.8371 16.631 15.762ZM7.37 15.762L8.028 15.104C8.11365 15.0159 8.16156 14.8979 8.16156 14.775C8.16156 14.6521 8.11365 14.5341 8.028 14.446L5.628 12.062L8.064 9.63201C8.14965 9.54391 8.19756 9.42588 8.19756 9.30301C8.19756 9.18014 8.14965 9.06211 8.064 8.97401L7.369 8.35301C7.2809 8.26736 7.16287 8.21945 7.04 8.21945C6.91713 8.21945 6.79911 8.26736 6.711 8.35301L3.34 11.733C3.29581 11.7746 3.2606 11.8248 3.23653 11.8805C3.21246 11.9363 3.20004 11.9963 3.20004 12.057C3.20004 12.1177 3.21246 12.1778 3.23653 12.2335C3.2606 12.2892 3.29581 12.3394 3.34 12.381L6.749 15.762C6.835 15.8371 6.94532 15.8785 7.0595 15.8785C7.17369 15.8785 7.284 15.8371 7.37 15.762ZM10.97 16.688L14.67 8.01001C14.6945 7.95409 14.7077 7.89388 14.7088 7.83285C14.7099 7.77182 14.699 7.71116 14.6766 7.65438C14.6542 7.59759 14.6208 7.54579 14.5783 7.50197C14.5358 7.45814 14.4851 7.42315 14.429 7.39901L13.577 7.03801C13.5211 7.01352 13.4609 7.00033 13.3998 6.99919C13.3388 6.99806 13.2782 7.00901 13.2214 7.03141C13.1646 7.05381 13.1128 7.08721 13.069 7.12971C13.0251 7.1722 12.9901 7.22294 12.966 7.27901L9.268 15.962C9.24351 16.0179 9.23032 16.0781 9.22919 16.1392C9.22806 16.2002 9.23901 16.2609 9.2614 16.3176C9.2838 16.3744 9.31721 16.4262 9.3597 16.47C9.4022 16.5139 9.45294 16.5489 9.509 16.573L10.361 16.934C10.4141 16.967 10.4734 16.9888 10.5352 16.9983C10.597 17.0077 10.6601 17.0046 10.7207 16.989C10.7812 16.9733 10.838 16.9456 10.8876 16.9075C10.9371 16.8693 10.9784 16.8216 11.009 16.767L10.97 16.688Z" fill="#1C203C"/>
</mask>
<g mask="url(#mask0)">
<rect width="24" height="24" fill="#1C203C"/>
</g>
</svg>
