<svg width="24" height="24" viewBox="0 0 24 24" fill="none" xmlns="http://www.w3.org/2000/svg">
<mask id="mask0" mask-type="alpha" maskUnits="userSpaceOnUse" x="2" y="2" width="20" height="20">
<path fill-rule="evenodd" clip-rule="evenodd" d="M12 2C13.9778 2 15.9112 2.58649 17.5557 3.6853C19.2002 4.78412 20.4819 6.3459 21.2388 8.17317C21.9957 10.0004 22.1937 12.0111 21.8079 13.9509C21.422 15.8907 20.4696 17.6725 19.0711 19.0711C17.6725 20.4696 15.8907 21.422 13.9509 21.8079C12.0111 22.1937 10.0004 21.9957 8.17317 21.2388C6.3459 20.4819 4.78412 19.2002 3.6853 17.5557C2.58649 15.9112 2 13.9778 2 12C2 9.34784 3.05357 6.8043 4.92893 4.92893C6.8043 3.05357 9.34784 2 12 2ZM12 4.222C10.4617 4.222 8.95786 4.67817 7.67877 5.53283C6.39969 6.38749 5.40276 7.60224 4.81406 9.02349C4.22537 10.4447 4.07134 12.0086 4.37145 13.5174C4.67157 15.0262 5.41235 16.4121 6.50012 17.4999C7.5879 18.5876 8.9738 19.3284 10.4826 19.6285C11.9914 19.9287 13.5553 19.7746 14.9765 19.1859C16.3978 18.5972 17.6125 17.6003 18.4672 16.3212C19.3218 15.0421 19.778 13.5383 19.778 12C19.778 9.93715 18.9585 7.95878 17.4999 6.50012C16.0412 5.04147 14.0629 4.222 12 4.222ZM12.556 10.333C12.629 10.333 12.7013 10.3474 12.7688 10.3753C12.8362 10.4033 12.8975 10.4442 12.9492 10.4958C13.0008 10.5475 13.0417 10.6088 13.0697 10.6762C13.0976 10.7437 13.112 10.816 13.112 10.889V15.889C13.112 16.0365 13.0534 16.1779 12.9492 16.2822C12.8449 16.3864 12.7035 16.445 12.556 16.445H11.444C11.2965 16.445 11.1551 16.3864 11.0508 16.2822C10.9466 16.1779 10.888 16.0365 10.888 15.889V10.889C10.888 10.816 10.9024 10.7437 10.9303 10.6762C10.9583 10.6088 10.9992 10.5475 11.0508 10.4958C11.1025 10.4442 11.1638 10.4033 11.2312 10.3753C11.2987 10.3474 11.371 10.333 11.444 10.333H12.556ZM12.556 7.022C12.7035 7.022 12.8449 7.08058 12.9492 7.18485C13.0534 7.28912 13.112 7.43054 13.112 7.578V8.689C13.112 8.76201 13.0976 8.83431 13.0697 8.90177C13.0417 8.96923 13.0008 9.03052 12.9492 9.08215C12.8975 9.13378 12.8362 9.17474 12.7688 9.20268C12.7013 9.23062 12.629 9.245 12.556 9.245H11.444C11.371 9.245 11.2987 9.23062 11.2312 9.20268C11.1638 9.17474 11.1025 9.13378 11.0508 9.08215C10.9992 9.03052 10.9583 8.96923 10.9303 8.90177C10.9024 8.83431 10.888 8.76201 10.888 8.689V7.578C10.888 7.43054 10.9466 7.28912 11.0508 7.18485C11.1551 7.08058 11.2965 7.022 11.444 7.022H12.556Z" fill="#1C203C"/>
</mask>
<g mask="url(#mask0)">
<rect width="24" height="24" fill="#1C203C"/>
</g>
</svg>
