<svg xmlns="http://www.w3.org/2000/svg" viewBox="0 0 24 24">
  <path d="M12.31 3.347c-1.301 0-2.26.896-2.62 2.056-.448.159-.852.37-1.195.642l11.98 11.997c.21-.193.316-.475.316-.809 0-.931-.844-1.731-1.635-2.487-.615-.606-.764-1.872-.879-3.04-.132-3.218-1.08-5.485-3.348-6.303-.37-1.16-1.327-2.056-2.62-2.056zm7.787 17.842a.69.69 0 00.993 0 .703.703 0 000-.985L5.11 4.234a.706.706 0 00-.993 0 .706.706 0 000 .994l15.979 15.96zM5.278 18.463h10.538L6.623 9.262c-.167.73-.264 1.538-.29 2.443-.114 1.169-.255 2.435-.879 3.041-.79.756-1.635 1.556-1.635 2.487 0 .739.554 1.23 1.46 1.23zm7.032 3.621c1.555 0 2.689-1.116 2.803-2.39H9.497c.114 1.274 1.257 2.39 2.813 2.39z"/>
</svg>
