<svg xmlns="http://www.w3.org/2000/svg" viewBox="0 0 24 24">
  <path d="M18.446 20.67c.281.272.73.272.993 0a.703.703 0 000-.985L3.558 3.814a.706.706 0 00-.994 0 .722.722 0 000 .993L18.446 20.67zm2.461-10.485c0-3.244-2.241-5.494-5.045-5.494-1.749 0-3.058.967-3.85 2.409-.773-1.442-2.091-2.409-3.84-2.409-.642 0-1.257.115-1.81.343l11.575 11.602c1.89-2.074 2.97-4.254 2.97-6.451zm-8.894 10.977c.228 0 .562-.176.835-.351a33.858 33.858 0 002.434-1.723L3.707 7.513a6.158 6.158 0 00-.589 2.672c0 3.752 3.155 7.461 8.06 10.626.272.175.606.351.835.351z"/>
</svg>
