<svg xmlns="http://www.w3.org/2000/svg" viewBox="0 0 24 24">
  <path d="M7.872 23h8.265c1.453 0 2.378-.905 2.44-2.474l.601-13.759h.916c.511 0 .906-.414.906-.963 0-.539-.395-.953-.906-.953H16.19V3.436c0-1.54-.906-2.436-2.485-2.436h-3.419c-1.588 0-2.494.895-2.494 2.436V4.85H3.906c-.502 0-.906.414-.906.953 0 .55.404.963.906.963h.916l.6 13.768c.073 1.57.979 2.465 2.45 2.465zM9.667 3.513c0-.453.287-.741.754-.741h3.15c.457 0 .753.288.753.74v1.34H9.667v-1.34zm-1.57 17.552c-.485 0-.817-.376-.835-.944L6.67 6.767h10.633l-.565 13.354c-.018.578-.35.944-.844.944H8.097zm1.265-1.473c.422 0 .682-.29.673-.703l-.27-9.898c-.008-.414-.286-.693-.681-.693-.404 0-.664.28-.655.703l.269 9.897c.018.415.278.694.664.694zm2.638 0c.404 0 .673-.28.673-.694V8.991c0-.414-.27-.693-.673-.693-.404 0-.673.28-.673.693v9.907c0 .415.27.694.673.694zm2.638 0c.386 0 .646-.28.664-.694l.27-9.897c.008-.414-.252-.693-.656-.693-.395 0-.673.27-.682.683l-.269 9.898c-.009.414.251.703.673.703z"/>
</svg>
