<svg width="24" height="24" viewBox="0 0 24 24" fill="none" xmlns="http://www.w3.org/2000/svg">
<mask id="mask0" mask-type="alpha" maskUnits="userSpaceOnUse" x="3" y="7" width="19" height="11">
<path fill-rule="evenodd" clip-rule="evenodd" d="M15.525 13.001H8.52501C8.3924 13.001 8.26522 12.9483 8.17145 12.8546C8.07769 12.7608 8.02501 12.6336 8.02501 12.501V11.501C8.02501 11.3684 8.07769 11.2412 8.17145 11.1475C8.26522 11.0537 8.3924 11.001 8.52501 11.001H15.525C15.6576 11.001 15.7848 11.0537 15.8786 11.1475C15.9723 11.2412 16.025 11.3684 16.025 11.501V12.501C16.0224 12.6328 15.9689 12.7585 15.8757 12.8517C15.7825 12.945 15.6568 12.9985 15.525 13.001ZM11.025 16.501V15.501C11.025 15.3684 10.9723 15.2412 10.8786 15.1475C10.7848 15.0537 10.6576 15.001 10.525 15.001H8.02501C7.5801 15.0011 7.14074 14.9022 6.73875 14.7116C6.33677 14.5209 5.98222 14.2432 5.7008 13.8986C5.41938 13.554 5.21813 13.1511 5.11162 12.7192C5.00512 12.2872 4.99603 11.8369 5.08501 11.401C5.24129 10.7101 5.63094 10.0942 6.18833 9.657C6.74571 9.21983 7.43675 8.98816 8.14501 9.00101H10.525C10.6576 9.00101 10.7848 8.94834 10.8786 8.85457C10.9723 8.7608 11.025 8.63362 11.025 8.50101V7.50101C11.025 7.36841 10.9723 7.24123 10.8786 7.14746C10.7848 7.05369 10.6576 7.00101 10.525 7.00101H8.02501C7.32412 6.9975 6.63033 7.14138 5.98864 7.42332C5.34695 7.70526 4.77171 8.11897 4.30024 8.63759C3.82877 9.15621 3.4716 9.76816 3.25191 10.4337C3.03221 11.0993 2.95491 11.8036 3.02501 12.501C3.18746 13.7626 3.81016 14.9197 4.77359 15.7503C5.73701 16.5808 6.97326 17.0262 8.24501 17.001H10.525C10.6576 17.001 10.7848 16.9483 10.8786 16.8546C10.9723 16.7608 11.025 16.6336 11.025 16.501ZM21.025 11.501C21.0951 12.1984 21.0178 12.9027 20.7981 13.5683C20.5784 14.2339 20.2213 14.8458 19.7498 15.3644C19.2783 15.8831 18.7031 16.2968 18.0614 16.5787C17.4197 16.8606 16.7259 17.0045 16.025 17.001H13.525C13.3924 17.001 13.2652 16.9483 13.1715 16.8546C13.0777 16.7608 13.025 16.6336 13.025 16.501V15.501C13.025 15.3684 13.0777 15.2412 13.1715 15.1475C13.2652 15.0537 13.3924 15.001 13.525 15.001H16.025C16.4699 15.0011 16.9093 14.9022 17.3113 14.7116C17.7133 14.5209 18.0678 14.2432 18.3492 13.8986C18.6306 13.554 18.8319 13.1511 18.9384 12.7192C19.0449 12.2872 19.054 11.8369 18.965 11.401C18.8087 10.7101 18.4191 10.0942 17.8617 9.657C17.3043 9.21983 16.6133 8.98816 15.905 9.00101H13.525C13.3924 9.00101 13.2652 8.94834 13.1715 8.85457C13.0777 8.7608 13.025 8.63362 13.025 8.50101V7.50101C13.025 7.36841 13.0777 7.24123 13.1715 7.14746C13.2652 7.05369 13.3924 7.00101 13.525 7.00101H15.805C17.0768 6.97581 18.313 7.42123 19.2764 8.25177C20.2399 9.0823 20.8626 10.2394 21.025 11.501Z" fill="#1C203C"/>
</mask>
<g mask="url(#mask0)">
<rect width="24" height="24" fill="#1C203C"/>
</g>
</svg>
