<svg width="24" height="24" viewBox="0 0 24 24" fill="none" xmlns="http://www.w3.org/2000/svg">
<path fill-rule="evenodd" clip-rule="evenodd" d="M15.525 13.001H8.525C8.39239 13.001 8.26522 12.9483 8.17145 12.8546C8.07768 12.7608 8.025 12.6336 8.025 12.501V11.501C8.025 11.3684 8.07768 11.2412 8.17145 11.1474C8.26522 11.0537 8.39239 11.001 8.525 11.001H15.525C15.6576 11.001 15.7848 11.0537 15.8786 11.1474C15.9723 11.2412 16.025 11.3684 16.025 11.501V12.501C16.0224 12.6328 15.9689 12.7585 15.8757 12.8517C15.7825 12.9449 15.6568 12.9984 15.525 13.001ZM11.025 16.501V15.501C11.025 15.3684 10.9723 15.2412 10.8786 15.1474C10.7848 15.0537 10.6576 15.001 10.525 15.001H8.025C7.58009 15.0011 7.14073 14.9022 6.73874 14.7116C6.33676 14.5209 5.98221 14.2432 5.70079 13.8986C5.41937 13.554 5.21812 13.1511 5.11161 12.7192C5.00511 12.2872 4.99602 11.8369 5.085 11.401C5.24128 10.7101 5.63094 10.0941 6.18832 9.65698C6.74571 9.21982 7.43675 8.98815 8.145 9.001H10.525C10.6576 9.001 10.7848 8.94832 10.8786 8.85455C10.9723 8.76078 11.025 8.63361 11.025 8.501V7.501C11.025 7.36839 10.9723 7.24121 10.8786 7.14745C10.7848 7.05368 10.6576 7.001 10.525 7.001H8.025C7.32412 6.99748 6.63032 7.14137 5.98863 7.42331C5.34695 7.70525 4.7717 8.11895 4.30023 8.63757C3.82876 9.15619 3.47159 9.76814 3.2519 10.4337C3.03221 11.0993 2.9549 11.8036 3.025 12.501C3.18745 13.7626 3.81015 14.9197 4.77358 15.7502C5.737 16.5808 6.97325 17.0262 8.245 17.001H10.525C10.6576 17.001 10.7848 16.9483 10.8786 16.8546C10.9723 16.7608 11.025 16.6336 11.025 16.501ZM21.025 11.501C21.0951 12.1984 21.0178 12.9027 20.7981 13.5683C20.5784 14.2339 20.2212 14.8458 19.7498 15.3644C19.2783 15.883 18.7031 16.2967 18.0614 16.5787C17.4197 16.8606 16.7259 17.0045 16.025 17.001H13.525C13.3924 17.001 13.2652 16.9483 13.1714 16.8546C13.0777 16.7608 13.025 16.6336 13.025 16.501V15.501C13.025 15.3684 13.0777 15.2412 13.1714 15.1474C13.2652 15.0537 13.3924 15.001 13.525 15.001H16.025C16.4699 15.0011 16.9093 14.9022 17.3113 14.7116C17.7132 14.5209 18.0678 14.2432 18.3492 13.8986C18.6306 13.554 18.8319 13.1511 18.9384 12.7192C19.0449 12.2872 19.054 11.8369 18.965 11.401C18.8087 10.7101 18.4191 10.0941 17.8617 9.65698C17.3043 9.21982 16.6133 8.98815 15.905 9.001H13.525C13.3924 9.001 13.2652 8.94832 13.1714 8.85455C13.0777 8.76078 13.025 8.63361 13.025 8.501V7.501C13.025 7.36839 13.0777 7.24121 13.1714 7.14745C13.2652 7.05368 13.3924 7.001 13.525 7.001H15.805C17.0767 6.97579 18.313 7.42121 19.2764 8.25175C20.2398 9.08229 20.8626 10.2394 21.025 11.501Z" fill="black"/>
</svg>
