<svg xmlns="http://www.w3.org/2000/svg" viewBox="0 0 24 24">
  <path d="M15.525 13.001h-7a.5.5 0 01-.5-.5v-1a.5.5 0 01.5-.5h7a.5.5 0 01.5.5v1a.51.51 0 01-.5.5zm-4.5 3.5v-1a.5.5 0 00-.5-.5h-2.5a3 3 0 01-2.94-3.6 3.08 3.08 0 013.06-2.4h2.38a.5.5 0 00.5-.5v-1a.5.5 0 00-.5-.5h-2.5a5 5 0 00-5 5.5 5.16 5.16 0 005.22 4.5h2.28a.5.5 0 00.5-.5zm10-5a5 5 0 01-5 5.5h-2.5a.5.5 0 01-.5-.5v-1a.5.5 0 01.5-.5h2.5a3.001 3.001 0 002.94-3.6 3.08 3.08 0 00-3.06-2.4h-2.38a.5.5 0 01-.5-.5v-1a.5.5 0 01.5-.5h2.28a5.16 5.16 0 015.22 4.5z"/>
</svg>
