<svg width="24" height="24" viewBox="0 0 24 24" fill="none" xmlns="http://www.w3.org/2000/svg">
<mask id="mask0" mask-type="alpha" maskUnits="userSpaceOnUse" x="6" y="3" width="13" height="17">
<path fill-rule="evenodd" clip-rule="evenodd" d="M17.765 9.64699H15.882V7.76499C15.8901 7.26546 15.7988 6.76931 15.6133 6.30545C15.4277 5.84159 15.1517 5.41928 14.8014 5.06315C14.451 4.70702 14.0332 4.42419 13.5725 4.23112C13.1117 4.03806 12.6171 3.93863 12.1175 3.93863C11.6179 3.93863 11.1233 4.03806 10.6625 4.23112C10.2018 4.42419 9.78401 4.70702 9.43364 5.06315C9.08326 5.41928 8.80727 5.84159 8.62174 6.30545C8.43621 6.76931 8.34486 7.26546 8.353 7.76499V9.64699H6.471C6.34608 9.64699 6.22628 9.69661 6.13795 9.78494C6.04962 9.87327 6 9.99307 6 10.118V19.53C6.00026 19.6547 6.05 19.7743 6.13831 19.8624C6.22661 19.9505 6.34626 20 6.471 20H17.765C17.8899 20 18.0097 19.9504 18.098 19.862C18.1864 19.7737 18.236 19.6539 18.236 19.529V10.118C18.236 9.99307 18.1864 9.87327 18.098 9.78494C18.0097 9.69661 17.8899 9.64699 17.765 9.64699ZM10.235 7.76499C10.235 7.26572 10.4333 6.7869 10.7864 6.43386C11.1394 6.08082 11.6182 5.88249 12.1175 5.88249C12.6168 5.88249 13.0956 6.08082 13.4486 6.43386C13.8017 6.7869 14 7.26572 14 7.76499V9.64699H10.235V7.76499Z" fill="#1C203C"/>
</mask>
<g mask="url(#mask0)">
<rect width="24" height="24" fill="#1C203C"/>
</g>
</svg>
