<svg xmlns="http://www.w3.org/2000/svg" viewBox="0 0 132 58">
  <path d="M25.689 26.65v2.612a.525.525 0 01-.524.523h-3.274a.247.247 0 00-.262.261v13.845a.525.525 0 01-.524.523h-2.62a.525.525 0 01-.524-.523V30.046a.246.246 0 00-.16-.246.248.248 0 00-.102-.015h-3.274a.524.524 0 01-.524-.523V26.65a.524.524 0 01.524-.523h10.74a.524.524 0 01.524.523zm14.409-.523h-2.645a.524.524 0 00-.524.523v12.278c0 1.149-.943 2.09-2.541 2.09a2.216 2.216 0 01-2.488-2.09V26.65a.525.525 0 00-.524-.523H28.73a.525.525 0 00-.525.523v12.278a6.225 6.225 0 0012.417 0V26.65a.524.524 0 00-.524-.523zm14.777 0h-2.62a.524.524 0 00-.524.523v9.822c0 .157-.183.209-.236.052L47.907 26.6a.642.642 0 00-.655-.47h-3.118a.525.525 0 00-.524.523v17.238a.525.525 0 00.524.523h2.619a.524.524 0 00.524-.523v-9.039c0-.157.183-.208.236-.052l3.563 9.169a.677.677 0 00.707.444h3.092a.525.525 0 00.523-.523V26.65a.524.524 0 00-.523-.523zm13.571 14.629h-6.208a.248.248 0 01-.263-.261V37.36a.248.248 0 01.263-.261h5.894a.524.524 0 00.524-.523v-2.612a.525.525 0 00-.524-.523h-5.894a.248.248 0 01-.263-.261v-3.134a.248.248 0 01.263-.261h6.1a.525.525 0 00.524-.523V26.65a.524.524 0 00-.524-.523h-9.509a.524.524 0 00-.524.523v17.241a.525.525 0 00.524.523h9.617a.525.525 0 00.524-.523v-2.613a.525.525 0 00-.524-.522zm62.7-38.796v40.5a1.955 1.955 0 01-1.214 1.812 1.959 1.959 0 01-.751.148H83.986v11.1a1.963 1.963 0 01-1.965 1.96H2.111a1.962 1.962 0 01-1.965-1.96v-40.5a1.962 1.962 0 011.965-1.96h77.945V1.96A1.963 1.963 0 0182.021 0h47.16a1.959 1.959 0 011.815 1.21c.099.237.15.492.15.75zm-51.09 15.023H4.403a.327.327 0 00-.327.327v35.925a.327.327 0 00.327.327h75.325a.327.327 0 00.327-.327l.001-36.252zm23.447 11.363a.524.524 0 00-.524-.523h-2.226a.25.25 0 01-.19-.072.237.237 0 01-.056-.087.24.24 0 01-.016-.102V16.851a.24.24 0 01.016-.103.238.238 0 01.056-.087.25.25 0 01.19-.072h1.965a.525.525 0 00.523-.522v-2.481a.522.522 0 00-.523-.523h-8.121a.525.525 0 00-.525.523v2.481a.525.525 0 00.525.522h1.964a.248.248 0 01.262.262v10.71a.246.246 0 01-.16.246.248.248 0 01-.102.015h-2.226a.525.525 0 00-.524.523v2.481a.525.525 0 00.524.523h8.644a.523.523 0 00.524-.523v-2.48zm14.7-14.759a.522.522 0 00-.523-.523h-2.62a.523.523 0 00-.524.523v9.822c0 .157-.183.209-.236.052l-3.589-9.926a.643.643 0 00-.655-.47h-3.117a.525.525 0 00-.524.523v17.239a.528.528 0 00.524.523h2.619a.523.523 0 00.524-.523v-9.039c0-.157.183-.208.236-.052l3.563 9.169a.677.677 0 00.707.444h3.092a.523.523 0 00.523-.523V13.587z"/>
</svg>
