<svg width="24" height="24" viewBox="0 0 24 24" fill="none" xmlns="http://www.w3.org/2000/svg">
<mask id="mask0" mask-type="alpha" maskUnits="userSpaceOnUse" x="4" y="10" width="16" height="4">
<path fill-rule="evenodd" clip-rule="evenodd" d="M6.27084 10.0903C6.64854 10.0903 7.01777 10.2023 7.33182 10.4121C7.64587 10.622 7.89065 10.9202 8.03519 11.2692C8.17973 11.6181 8.21755 12.0021 8.14386 12.3726C8.07018 12.743 7.88829 13.0833 7.62121 13.3504C7.35413 13.6175 7.01385 13.7993 6.6434 13.873C6.27296 13.9467 5.88897 13.9089 5.54002 13.7643C5.19106 13.6198 4.8928 13.375 4.68296 13.061C4.47312 12.7469 4.36111 12.3777 4.36111 12C4.36111 11.4935 4.56232 11.0078 4.92046 10.6496C5.2786 10.2915 5.76435 10.0903 6.27084 10.0903ZM12 10.0903C12.3777 10.0903 12.7469 10.2023 13.061 10.4121C13.375 10.622 13.6198 10.9202 13.7644 11.2692C13.9089 11.6181 13.9467 12.0021 13.873 12.3726C13.7993 12.743 13.6175 13.0833 13.3504 13.3504C13.0833 13.6175 12.743 13.7993 12.3726 13.873C12.0021 13.9467 11.6181 13.9089 11.2692 13.7643C10.9202 13.6198 10.622 13.375 10.4121 13.061C10.2023 12.7469 10.0903 12.3777 10.0903 12C10.0903 11.4935 10.2915 11.0078 10.6496 10.6496C11.0078 10.2915 11.4935 10.0903 12 10.0903ZM17.7292 10.0903C18.1069 10.0903 18.4761 10.2023 18.7902 10.4121C19.1042 10.622 19.349 10.9202 19.4935 11.2692C19.6381 11.6181 19.6759 12.0021 19.6022 12.3726C19.5285 12.743 19.3466 13.0833 19.0795 13.3504C18.8125 13.6175 18.4722 13.7993 18.1017 13.873C17.7313 13.9467 17.3473 13.9089 16.9984 13.7643C16.6494 13.6198 16.3511 13.375 16.1413 13.061C15.9315 12.7469 15.8194 12.3777 15.8194 12C15.8194 11.4935 16.0206 11.0078 16.3788 10.6496C16.7369 10.2915 17.2227 10.0903 17.7292 10.0903Z" fill="#1C203C"/>
</mask>
<g mask="url(#mask0)">
<rect width="24" height="24" fill="#1C203C"/>
</g>
</svg>
