<svg width="24" height="24" viewBox="0 0 24 24" fill="none" xmlns="http://www.w3.org/2000/svg">
<path fill-rule="evenodd" clip-rule="evenodd" d="M4.5 9.5C4.99445 9.5 5.4778 9.64662 5.88893 9.92133C6.30005 10.196 6.62048 10.5865 6.8097 11.0433C6.99892 11.5001 7.04843 12.0028 6.95196 12.4877C6.8555 12.9727 6.6174 13.4181 6.26777 13.7678C5.91814 14.1174 5.47268 14.3555 4.98773 14.452C4.50277 14.5484 4.00011 14.4989 3.54329 14.3097C3.08648 14.1205 2.69603 13.8 2.42133 13.3889C2.14662 12.9778 2 12.4945 2 12C2 11.337 2.26339 10.7011 2.73223 10.2322C3.20107 9.76339 3.83696 9.5 4.5 9.5ZM12 9.5C12.4945 9.5 12.9778 9.64662 13.3889 9.92133C13.8 10.196 14.1205 10.5865 14.3097 11.0433C14.4989 11.5001 14.5484 12.0028 14.452 12.4877C14.3555 12.9727 14.1174 13.4181 13.7678 13.7678C13.4181 14.1174 12.9727 14.3555 12.4877 14.452C12.0028 14.5484 11.5001 14.4989 11.0433 14.3097C10.5865 14.1205 10.196 13.8 9.92133 13.3889C9.64662 12.9778 9.5 12.4945 9.5 12C9.5 11.337 9.76339 10.7011 10.2322 10.2322C10.7011 9.76339 11.337 9.5 12 9.5ZM19.5 9.5C19.9945 9.5 20.4778 9.64662 20.8889 9.92133C21.3 10.196 21.6205 10.5865 21.8097 11.0433C21.9989 11.5001 22.0484 12.0028 21.952 12.4877C21.8555 12.9727 21.6174 13.4181 21.2678 13.7678C20.9181 14.1174 20.4727 14.3555 19.9877 14.452C19.5028 14.5484 19.0001 14.4989 18.5433 14.3097C18.0865 14.1205 17.696 13.8 17.4213 13.3889C17.1466 12.9778 17 12.4945 17 12C17 11.337 17.2634 10.7011 17.7322 10.2322C18.2011 9.76339 18.837 9.5 19.5 9.5Z" fill="black"/>
</svg>
