<svg width="24" height="24" viewBox="0 0 24 24" fill="none" xmlns="http://www.w3.org/2000/svg">
<path fill-rule="evenodd" clip-rule="evenodd" d="M16.214 12.7068C16.3988 12.5179 16.5023 12.2641 16.5023 11.9998C16.5023 11.7355 16.3988 11.4817 16.214 11.2928C16.1233 11.2002 16.015 11.1266 15.8955 11.0763C15.776 11.0261 15.6476 11.0002 15.518 11.0002C15.3883 11.0002 15.26 11.0261 15.1405 11.0763C15.021 11.1266 14.9127 11.2002 14.822 11.2928C14.6372 11.4817 14.5337 11.7355 14.5337 11.9998C14.5337 12.2641 14.6372 12.5179 14.822 12.7068C14.9127 12.7995 15.021 12.8731 15.1405 12.9233C15.26 12.9736 15.3883 12.9995 15.518 12.9995C15.6476 12.9995 15.776 12.9736 15.8955 12.9233C16.015 12.8731 16.1233 12.7995 16.214 12.7068ZM12.698 12.7068C12.8828 12.5179 12.9863 12.2641 12.9863 11.9998C12.9863 11.7355 12.8828 11.4817 12.698 11.2928C12.6073 11.2002 12.499 11.1266 12.3795 11.0763C12.26 11.0261 12.1316 11.0002 12.002 11.0002C11.8723 11.0002 11.744 11.0261 11.6245 11.0763C11.505 11.1266 11.3967 11.2002 11.306 11.2928C11.1212 11.4817 11.0177 11.7355 11.0177 11.9998C11.0177 12.2641 11.1212 12.5179 11.306 12.7068C11.3967 12.7995 11.505 12.8731 11.6245 12.9233C11.744 12.9736 11.8723 12.9995 12.002 12.9995C12.1316 12.9995 12.26 12.9736 12.3795 12.9233C12.499 12.8731 12.6073 12.7995 12.698 12.7068ZM8.486 12.9998C8.35574 12.9997 8.2268 12.9737 8.10665 12.9234C7.98649 12.8731 7.87751 12.7995 7.786 12.7068C7.60117 12.5179 7.49768 12.2641 7.49768 11.9998C7.49768 11.7355 7.60117 11.4817 7.786 11.2928C7.87669 11.2002 7.98497 11.1266 8.10449 11.0763C8.224 11.0261 8.35235 11.0002 8.482 11.0002C8.61165 11.0002 8.73999 11.0261 8.85951 11.0763C8.97902 11.1266 9.0873 11.2002 9.178 11.2928C9.36282 11.4817 9.46631 11.7355 9.46631 11.9998C9.46631 12.2641 9.36282 12.5179 9.178 12.7068C9.08649 12.7995 8.9775 12.8731 8.85735 12.9234C8.73719 12.9737 8.60825 12.9997 8.478 12.9998" fill="black"/>
</svg>
