<svg width="24" height="24" viewBox="0 0 24 24" fill="none" xmlns="http://www.w3.org/2000/svg">
<mask id="mask0" mask-type="alpha" maskUnits="userSpaceOnUse" x="8" y="6" width="8" height="12">
<path fill-rule="evenodd" clip-rule="evenodd" d="M15.667 6.66C15.7553 6.66 15.84 6.69509 15.9025 6.75754C15.9649 6.81999 16 6.90469 16 6.993V16.993C16 17.0813 15.9649 17.166 15.9025 17.2285C15.84 17.2909 15.7553 17.326 15.667 17.326H13.667C13.6232 17.3261 13.5798 17.3176 13.5393 17.3009C13.4987 17.2843 13.4619 17.2598 13.4309 17.2288C13.3999 17.1979 13.3752 17.1611 13.3584 17.1207C13.3416 17.0802 13.333 17.0368 13.333 16.993V6.993C13.333 6.90469 13.3681 6.81999 13.4305 6.75754C13.493 6.69509 13.5777 6.66 13.666 6.66H15.667ZM10.334 6.66C10.4223 6.66 10.507 6.69509 10.5695 6.75754C10.6319 6.81999 10.667 6.90469 10.667 6.993V16.993C10.667 17.0813 10.6319 17.166 10.5695 17.2285C10.507 17.2909 10.4223 17.326 10.334 17.326H8.334C8.29019 17.3261 8.24678 17.3176 8.20626 17.3009C8.16574 17.2843 8.12891 17.2598 8.09789 17.2288C8.06686 17.1979 8.04224 17.1611 8.02544 17.1207C8.00865 17.0802 8 17.0368 8 16.993V6.993C8 6.90469 8.03508 6.81999 8.09753 6.75754C8.15998 6.69509 8.24468 6.66 8.333 6.66H10.334Z" fill="#1C203C"/>
</mask>
<g mask="url(#mask0)">
<rect width="24" height="24" fill="#1C203C"/>
</g>
</svg>
