<svg width="24" height="24" viewBox="0 0 24 24" fill="none" xmlns="http://www.w3.org/2000/svg">
<mask id="mask0" mask-type="alpha" maskUnits="userSpaceOnUse" x="6" y="4" width="12" height="16">
<path fill-rule="evenodd" clip-rule="evenodd" d="M16.8893 4.88933C17.0071 4.88933 17.12 4.93611 17.2033 5.01937C17.2865 5.10264 17.3333 5.21557 17.3333 5.33333V18.6667C17.3333 18.7844 17.2865 18.8974 17.2033 18.9806C17.12 19.0639 17.0071 19.1107 16.8893 19.1107H14.2227C14.1642 19.1108 14.1064 19.0995 14.0523 19.0772C13.9983 19.055 13.9492 19.0223 13.9078 18.9811C13.8665 18.9398 13.8336 18.8908 13.8112 18.8369C13.7889 18.7829 13.7773 18.7251 13.7773 18.6667V5.33333C13.7773 5.21557 13.8241 5.10264 13.9074 5.01937C13.9906 4.93611 14.1036 4.88933 14.2213 4.88933H16.8893ZM9.77866 4.88933C9.89641 4.88933 10.0093 4.93611 10.0926 5.01937C10.1759 5.10264 10.2227 5.21557 10.2227 5.33333V18.6667C10.2227 18.7844 10.1759 18.8974 10.0926 18.9806C10.0093 19.0639 9.89641 19.1107 9.77866 19.1107H7.11199C7.05357 19.1108 6.99569 19.0995 6.94167 19.0772C6.88765 19.055 6.83854 19.0223 6.79717 18.9811C6.7558 18.9398 6.72298 18.8908 6.70058 18.8369C6.67818 18.7829 6.66666 18.7251 6.66666 18.6667V5.33333C6.66666 5.21557 6.71343 5.10264 6.7967 5.01937C6.87997 4.93611 6.9929 4.88933 7.11066 4.88933H9.77866Z" fill="#1C203C"/>
</mask>
<g mask="url(#mask0)">
<rect width="24" height="24" fill="#1C203C"/>
</g>
</svg>
