<svg xmlns="http://www.w3.org/2000/svg" viewBox="0 0 24 24">
  <path d="M2.3 6a.3.3 0 00-.3.3v1.4a.3.3 0 00.3.3h15.4a.3.3 0 00.3-.3V6.3a.3.3 0 00-.3-.3H2.3zm0 4a.3.3 0 00-.3.3v1.4a.3.3 0 00.3.3h11.4a.3.3 0 00.3-.3v-1.4a.3.3 0 00-.3-.3H2.3zM2 14.3a.3.3 0 01.3-.3h7.4a.3.3 0 01.3.3v1.4a.3.3 0 01-.3.3H2.3a.3.3 0 01-.3-.3v-1.4zM17.7 10a.3.3 0 01.3.3V14h3.7a.3.3 0 01.3.3v1.4a.3.3 0 01-.3.3H18v3.7a.3.3 0 01-.3.3h-1.4a.3.3 0 01-.3-.3V16h-3.7a.3.3 0 01-.3-.3v-1.4a.3.3 0 01.3-.3H16v-3.7a.3.3 0 01.3-.3h1.4z"/>
</svg>
