<svg xmlns="http://www.w3.org/2000/svg" viewBox="0 0 24 24">
  <path d="M2.3 6a.3.3 0 00-.3.3v1.4a.3.3 0 00.3.3h16.4a.3.3 0 00.3-.3V6.3a.3.3 0 00-.3-.3H2.3zm0 4a.3.3 0 00-.3.3v1.4a.3.3 0 00.3.3h16.4a.3.3 0 00.3-.3v-1.4a.3.3 0 00-.3-.3H2.3zM2 14.3a.3.3 0 01.3-.3h12.4a.3.3 0 01.3.3v1.4a.3.3 0 01-.3.3H2.3a.3.3 0 01-.3-.3v-1.4zm15.052 5.574A.234.234 0 0117 19.73V14.27c0-.051.018-.1.052-.144a.326.326 0 01.14-.1.415.415 0 01.358.031l4.32 2.73c.041.024.074.057.096.094A.227.227 0 0122 17a.227.227 0 01-.034.118.293.293 0 01-.095.095l-4.321 2.73a.424.424 0 01-.359.032.326.326 0 01-.139-.101z"/>
</svg>
