<svg width="24" height="24" viewBox="0 0 24 24" fill="none" xmlns="http://www.w3.org/2000/svg">
<mask id="mask0" mask-type="alpha" maskUnits="userSpaceOnUse" x="9" y="6" width="8" height="12">
<path fill-rule="evenodd" clip-rule="evenodd" d="M9 16.8526C9.00032 16.9431 9.02597 17.0317 9.07404 17.1084C9.12211 17.1851 9.19068 17.2468 9.272 17.2866C9.35396 17.325 9.4449 17.34 9.53486 17.3301C9.62482 17.3203 9.71032 17.2858 9.782 17.2306L15.925 12.3786C15.9822 12.3335 16.0285 12.276 16.0603 12.2104C16.0921 12.1449 16.1086 12.0729 16.1086 12.0001C16.1086 11.9272 16.0921 11.8553 16.0603 11.7897C16.0285 11.7242 15.9822 11.6667 15.925 11.6216L9.782 6.77058C9.71087 6.71451 9.62541 6.67957 9.53537 6.66975C9.44533 6.65993 9.35434 6.67562 9.2728 6.71504C9.19125 6.75446 9.12243 6.81601 9.07419 6.89267C9.02596 6.96933 9.00025 7.058 9 7.14858V16.8526Z" fill="#1C203C"/>
</mask>
<g mask="url(#mask0)">
<rect width="24" height="24" fill="#1C203C"/>
</g>
</svg>
