<svg width="24" height="24" viewBox="0 0 24 24" fill="none" xmlns="http://www.w3.org/2000/svg">
<path fill-rule="evenodd" clip-rule="evenodd" d="M17.2943 16.1449C18.0404 16.8769 18.4703 17.872 18.492 18.917C19.8834 17.6148 20.851 15.9242 21.2691 14.0649C21.6872 12.2056 21.5364 10.2636 20.8363 8.4911C20.1363 6.71862 18.9193 5.19766 17.3436 4.12582C15.7679 3.05398 13.9062 2.48083 12.0005 2.48083C10.0948 2.48083 8.23313 3.05398 6.6574 4.12582C5.08167 5.19766 3.86473 6.71862 3.16468 8.4911C2.46464 10.2636 2.31385 12.2056 2.73193 14.0649C3.15 15.9242 4.1176 17.6148 5.50901 18.917C5.53069 17.8721 5.96044 16.8773 6.70631 16.1452C7.45218 15.4132 8.45492 15.0021 9.50001 15H14.5C15.5453 15.0019 16.5483 15.4128 17.2943 16.1449ZM5.33316 2.02236C7.30655 0.703788 9.62663 0 12 0C15.1826 0 18.2348 1.26428 20.4853 3.51472C22.7357 5.76515 24 8.8174 24 12C24 14.3734 23.2962 16.6935 21.9776 18.6668C20.6591 20.6402 18.7849 22.1783 16.5922 23.0866C14.3995 23.9948 11.9867 24.2324 9.65892 23.7694C7.33115 23.3064 5.19295 22.1635 3.51472 20.4853C1.83649 18.8071 0.693605 16.6689 0.230582 14.3411C-0.232441 12.0133 0.00519943 9.60051 0.913451 7.4078C1.8217 5.21509 3.35977 3.34094 5.33316 2.02236ZM14.9101 11.9445C15.2947 11.3689 15.5 10.6922 15.5 10C15.5 9.07174 15.1313 8.1815 14.4749 7.52513C13.8185 6.86875 12.9283 6.5 12 6.5C11.3078 6.5 10.6311 6.70527 10.0555 7.08986C9.47993 7.47444 9.03133 8.02107 8.76642 8.66061C8.50152 9.30015 8.43221 10.0039 8.56725 10.6828C8.7023 11.3617 9.03564 11.9854 9.52513 12.4749C10.0146 12.9644 10.6383 13.2977 11.3172 13.4327C11.9961 13.5678 12.6999 13.4985 13.3394 13.2336C13.9789 12.9687 14.5256 12.5201 14.9101 11.9445Z" fill="black"/>
</svg>
