<svg width="24" height="24" viewBox="0 0 24 24" fill="none" xmlns="http://www.w3.org/2000/svg">
<mask id="mask0" mask-type="alpha" maskUnits="userSpaceOnUse" x="4" y="3" width="17" height="17">
<path fill-rule="evenodd" clip-rule="evenodd" d="M19.333 4.26899C19.316 4.1912 19.2743 4.12103 19.214 4.06899C19.1726 4.03903 19.1252 4.01855 19.075 4.00899C19.0142 3.99279 18.9499 3.99446 18.89 4.01379C18.83 4.03311 18.7769 4.06929 18.737 4.11799L17.187 6.07499C15.9503 4.99063 14.4077 4.31671 12.7718 4.14616C11.1359 3.97561 9.48737 4.31683 8.05361 5.12278C6.61984 5.92872 5.47147 7.15968 4.76686 8.64586C4.06226 10.1321 3.83614 11.8002 4.1197 13.4204C4.40325 15.0405 5.18251 16.5327 6.35 17.6913C7.51748 18.8498 9.01567 19.6176 10.6379 19.8886C12.2602 20.1597 13.9266 19.9208 15.4073 19.2047C16.888 18.4887 18.1101 17.3309 18.905 15.891C18.935 15.8317 18.953 15.7671 18.9577 15.7009C18.9625 15.6346 18.954 15.5681 18.9328 15.5052C18.9116 15.4422 18.878 15.3842 18.8341 15.3343C18.7902 15.2845 18.7368 15.2439 18.677 15.215L17.777 14.788C17.6616 14.7359 17.5308 14.7296 17.4109 14.7702C17.291 14.8109 17.191 14.8955 17.131 15.007C16.5183 16.0786 15.5884 16.9339 14.4694 17.4551C13.3505 17.9764 12.0974 18.138 10.8829 17.9176C9.66827 17.6973 8.55185 17.1059 7.68729 16.2248C6.82273 15.3437 6.25254 14.2163 6.05523 12.9977C5.85793 11.7792 6.0432 10.5295 6.58554 9.42057C7.12788 8.31168 8.00062 7.39817 9.08362 6.8058C10.1666 6.21344 11.4066 5.97135 12.6329 6.11286C13.8591 6.25437 15.0114 6.77252 15.931 7.59599L14.391 9.49599C14.3533 9.5463 14.33 9.60589 14.3234 9.66841C14.3169 9.73093 14.3274 9.79405 14.3539 9.85108C14.3803 9.9081 14.4218 9.95689 14.4737 9.99226C14.5257 10.0276 14.5863 10.0483 14.649 10.052L20.222 10.122C20.2742 10.1208 20.3255 10.1085 20.3726 10.0859C20.4197 10.0633 20.4614 10.0309 20.495 9.99099C20.5267 9.95097 20.5487 9.90409 20.5591 9.85409C20.5695 9.80409 20.5681 9.75235 20.555 9.70299L19.333 4.26899Z" fill="#1C203C"/>
</mask>
<g mask="url(#mask0)">
<rect width="24" height="24" fill="#1C203C"/>
</g>
</svg>
