<svg width="24" height="24" viewBox="0 0 24 24" fill="none" xmlns="http://www.w3.org/2000/svg">
<path fill-rule="evenodd" clip-rule="evenodd" d="M21.45 19.018L16.34 13.858C17.0039 12.7533 17.35 11.4868 17.34 10.198C17.3462 8.58176 16.8062 7.01083 15.8075 5.74005C14.8088 4.46927 13.41 3.5732 11.8381 3.19719C10.2662 2.82118 8.61336 2.9873 7.14771 3.66859C5.68207 4.34988 4.4896 5.50638 3.76376 6.95048C3.03791 8.39458 2.82128 10.0416 3.14898 11.6242C3.47669 13.2069 4.32953 14.6325 5.56914 15.6696C6.80874 16.7067 8.3624 17.2946 9.97808 17.3379C11.5938 17.3812 13.1767 16.8773 14.47 15.908L19.47 20.908C19.5618 20.999 19.6858 21.05 19.815 21.05C19.9442 21.05 20.0682 20.999 20.16 20.908L21.42 19.648C21.511 19.5562 21.562 19.4322 21.562 19.303C21.562 19.1738 21.511 19.0498 21.42 18.958L21.45 19.018ZM5.82 10.198C5.81802 9.32494 6.07524 8.47093 6.55905 7.74418C7.04287 7.01743 7.73151 6.45064 8.53774 6.11562C9.34397 5.7806 10.2315 5.69242 11.0879 5.86226C11.9443 6.0321 12.731 6.45232 13.3483 7.06967C13.9657 7.68702 14.3859 8.47372 14.5557 9.33011C14.7256 10.1865 14.6374 11.074 14.3024 11.8803C13.9674 12.6865 13.4006 13.3751 12.6738 13.8589C11.9471 14.3428 11.0931 14.6 10.22 14.598C9.05386 14.5954 7.93624 14.1309 7.11165 13.3064C6.28706 12.4818 5.82264 11.3641 5.82 10.198Z" fill="black"/>
</svg>
