<svg xmlns="http://www.w3.org/2000/svg" viewBox="0 0 24 24">
  <path d="M13.52 2L14 4.92a7.61 7.61 0 011.53.64L18 3.83 20.14 6l-1.71 2.44c.272.493.483 1.017.63 1.56l2.94.48v3.08l-2.94.44a7.457 7.457 0 01-.62 1.52L20.17 18 18 20.14l-2.43-1.7a7.699 7.699 0 01-1.54.64L13.52 22h-3.08L10 19.09a7.695 7.695 0 01-1.54-.64L6 20.14 3.83 18l1.71-2.4A6.998 6.998 0 014.9 14L2 13.52v-3.08L4.9 10a7.46 7.46 0 01.64-1.54L3.85 6 6 3.83l2.4 1.71a8 8 0 011.6-.63L10.44 2h3.08zM12 8.63a3.4 3.4 0 10-.18 6.798A3.4 3.4 0 0012 8.63z"/>
</svg>
