<svg xmlns="http://www.w3.org/2000/svg" viewBox="0 0 24 24">
  <path d="M6.75 12.875a.438.438 0 01.438.438v4.375h9.625v-4.375a.438.438 0 01.438-.437h1.313a.438.438 0 01.438.438v6.125a.438.438 0 01-.437.438H5.438A.44.44 0 015 19.438v-6.125a.438.438 0 01.438-.437H6.75v-.001zm4.867-7.716a.542.542 0 01.767 0l.766.766 3.067 3.067a.543.543 0 010 .767l-.767.766a.542.542 0 01-.766 0l-1.6-1.6v5.7a.543.543 0 01-.542.543h-1.084a.542.542 0 01-.542-.543v-5.7l-1.6 1.6a.542.542 0 01-.767 0l-.766-.766a.542.542 0 010-.767l3.066-3.067.768-.766z"/>
</svg>
