<svg width="24" height="24" viewBox="0 0 24 24" fill="none" xmlns="http://www.w3.org/2000/svg">
<path d="M11.9 17.908C17.481 17.908 21.3 13.408 21.3 12.008C21.3 10.608 17.469 6.108 11.9 6.108C6.4 6.108 2.5 10.608 2.5 12.008C2.5 13.408 6.4 17.908 11.9 17.908ZM11.9 15.843C10.8809 15.8393 9.9044 15.4336 9.18274 14.714C8.46109 13.9944 8.05258 13.0191 8.046 12C8.06229 10.989 8.47534 10.0249 9.19605 9.31573C9.91676 8.60654 10.8874 8.20907 11.8985 8.20907C12.9096 8.20907 13.8802 8.60654 14.6009 9.31573C15.3217 10.0249 15.7347 10.989 15.751 12C15.7455 13.0189 15.3377 13.9944 14.6165 14.7141C13.8952 15.4339 12.9189 15.8396 11.9 15.843ZM11.907 13.404C12.1827 13.3997 12.4511 13.314 12.6783 13.1577C12.9055 13.0015 13.0815 12.7816 13.1843 12.5256C13.287 12.2697 13.3118 11.9891 13.2557 11.7191C13.1995 11.4491 13.0649 11.2017 12.8686 11.0079C12.6724 10.8142 12.4233 10.6827 12.1526 10.63C11.8819 10.5773 11.6017 10.6057 11.347 10.7117C11.0924 10.8176 10.8748 10.9964 10.7214 11.2256C10.5681 11.4548 10.4858 11.7242 10.485 12C10.489 12.3737 10.6406 12.7307 10.9068 12.993C11.1731 13.2553 11.5323 13.4016 11.906 13.4L11.907 13.404Z" fill="black"/>
</svg>
