<svg xmlns="http://www.w3.org/2000/svg" viewBox="0 0 24 24">
  <path d="M16.374 7.195v1.407a7.333 7.333 0 11-2.083 0V7.195h2.083zm-1.041 3.833a.333.333 0 00-.333.333v3.557a1 1 0 000 1.886v.724a.333.333 0 10.667 0v-.723a1 1 0 000-1.886v-3.557a.333.333 0 00-.334-.334zm6.283-3.649l1.584 1.58-1.053 1.053-.482-.482-.56.562-.617-.618.561-.561-.481-.481 1.048-1.053zM6.266 2.231l4.309.682-.133.837-3.6 3.305 3.04.481-.152.959-4.35-.689.124-.783L9.151 3.67l-3.04-.481.155-.958zM3.2 1l.043.622-2.03 2.962 2.257-.158.05.712-3.23.226-.041-.582 2.058-3-2.257.154L0 1.224 3.2 1z"/>
</svg>
