<svg width="24" height="24" viewBox="0 0 24 24" fill="none" xmlns="http://www.w3.org/2000/svg">
<mask id="mask0" mask-type="alpha" maskUnits="userSpaceOnUse" x="6" y="6" width="12" height="12">
<path d="M7.33332 6.66667H16.6667C16.8435 6.66667 17.013 6.73691 17.1381 6.86193C17.2631 6.98696 17.3333 7.15653 17.3333 7.33334V16.6667C17.3333 16.8435 17.2631 17.0131 17.1381 17.1381C17.013 17.2631 16.8435 17.3333 16.6667 17.3333H7.33332C7.15651 17.3333 6.98694 17.2631 6.86192 17.1381C6.73689 17.0131 6.66666 16.8435 6.66666 16.6667V7.33334C6.66666 7.15653 6.73689 6.98696 6.86192 6.86193C6.98694 6.73691 7.15651 6.66667 7.33332 6.66667V6.66667Z" fill="#1C203C"/>
</mask>
<g mask="url(#mask0)">
<rect width="24" height="24" fill="#1C203C"/>
</g>
</svg>
