<svg width="24" height="24" viewBox="0 0 24 24" fill="none" xmlns="http://www.w3.org/2000/svg">
<mask id="mask0" mask-type="alpha" maskUnits="userSpaceOnUse" x="1" y="1" width="21" height="22">
<path fill-rule="evenodd" clip-rule="evenodd" d="M4.87299 19.626V10.554C4.87563 10.3627 4.84056 10.1727 4.76977 9.99489C4.69898 9.81711 4.59387 9.65501 4.46042 9.51785C4.32698 9.3807 4.16783 9.27117 3.99206 9.19553C3.81628 9.11989 3.62733 9.07961 3.43599 9.077C3.04981 9.0828 2.68172 9.24158 2.41249 9.51849C2.14327 9.7954 1.99491 10.1678 1.99999 10.554V19.625C1.99464 20.0114 2.14288 20.384 2.41214 20.6612C2.68139 20.9383 3.04964 21.0972 3.43599 21.103C3.62733 21.1003 3.81626 21.0599 3.99198 20.9841C4.16771 20.9083 4.32679 20.7987 4.46014 20.6615C4.59348 20.5242 4.69849 20.362 4.76916 20.1842C4.83982 20.0064 4.87477 19.8163 4.87199 19.625L4.87299 19.626ZM8.34999 19.008C10.027 19.736 15.16 20.495 16.134 20.094C16.649 19.612 17.943 16.583 18.847 14.009C18.9094 13.8282 19.0278 13.672 19.185 13.563C19.916 13.063 20.294 12.481 20.223 11.978C20.1675 11.7508 20.0493 11.5437 19.8819 11.3803C19.7145 11.2169 19.5045 11.1039 19.276 11.054C18.166 10.694 15.444 10.074 15.417 10.068C15.2634 10.0319 15.122 9.95585 15.0074 9.84749C14.8927 9.73912 14.8087 9.60232 14.764 9.451C14.718 9.29798 14.7122 9.13567 14.7472 8.97977C14.7823 8.82386 14.8569 8.67963 14.964 8.561C16.945 6.36 17.3 4.091 16.913 3.191C16.795 2.913 16.672 2.913 16.607 2.913C16.171 2.913 15.968 3.226 15.518 4.59C14.991 6.185 13.172 8.09 10.991 9.326C10.0728 9.86296 9.19058 10.4592 8.34999 11.111V19.008ZM15.024 22C12.296 22 8.01299 21.066 6.95299 20.289C6.83738 20.2032 6.74356 20.0915 6.67912 19.9627C6.61467 19.834 6.5814 19.692 6.58199 19.548V10.661C6.5816 10.5247 6.61155 10.39 6.66967 10.2667C6.72778 10.1433 6.8126 10.0345 6.91799 9.948C7.93547 9.13194 9.01097 8.39099 10.136 7.731C11.738 6.9151 13.037 5.60805 13.843 4.001C14.249 2.773 14.8 1.091 16.607 1.091C17.0299 1.09431 17.4415 1.22751 17.7862 1.47256C18.1309 1.71761 18.3919 2.06267 18.534 2.461C19.282 4.226 18.494 6.678 17.18 8.616C18.065 8.831 19.163 9.109 19.807 9.316C20.3595 9.46747 20.8571 9.77398 21.2409 10.1993C21.6248 10.6246 21.8788 11.1509 21.973 11.716C22.0233 12.3365 21.9051 12.959 21.6309 13.5179C21.3566 14.0768 20.9366 14.5512 20.415 14.891C19.568 17.275 18.088 21.054 17.015 21.672C16.3862 21.9321 15.7058 22.0433 15.027 21.997L15.024 22Z" fill="#1C203C"/>
</mask>
<g mask="url(#mask0)">
<rect width="24" height="24" fill="#1C203C"/>
</g>
</svg>
