<svg xmlns="http://www.w3.org/2000/svg" viewBox="0 0 24 24">
  <path d="M4.873 19.626v-9.072a1.457 1.457 0 00-1.437-1.477A1.458 1.458 0 002 10.554v9.071a1.458 1.458 0 001.436 1.478 1.456 1.456 0 001.436-1.478l.001.001zm3.477-.618c1.677.728 6.81 1.487 7.784 1.086.515-.482 1.809-3.511 2.713-6.085a.9.9 0 01.338-.446c.731-.5 1.109-1.082 1.038-1.585a1.25 1.25 0 00-.947-.924c-1.11-.36-3.832-.98-3.859-.986a.894.894 0 01-.653-.617.93.93 0 01.2-.89c1.981-2.201 2.336-4.47 1.949-5.37-.118-.278-.241-.278-.306-.278-.436 0-.639.313-1.089 1.677-.527 1.595-2.346 3.5-4.527 4.736-.918.537-1.8 1.133-2.641 1.785v7.897zM15.024 22c-2.728 0-7.011-.934-8.071-1.711a.918.918 0 01-.371-.741v-8.887a.92.92 0 01.336-.713 26.892 26.892 0 013.218-2.217 8.424 8.424 0 003.707-3.73c.406-1.228.957-2.91 2.764-2.91a2.063 2.063 0 011.927 1.37c.748 1.765-.04 4.217-1.354 6.155.885.215 1.983.493 2.627.7a3 3 0 012.166 2.4 3.457 3.457 0 01-1.558 3.175c-.847 2.384-2.327 6.163-3.4 6.781-.629.26-1.31.371-1.988.325l-.003.003z"/>
</svg>
