<svg width="24" height="24" viewBox="0 0 24 24" fill="none" xmlns="http://www.w3.org/2000/svg">
<mask id="mask0" mask-type="alpha" maskUnits="userSpaceOnUse" x="2" y="1" width="20" height="21">
<path fill-rule="evenodd" clip-rule="evenodd" d="M19.127 4.271V12.948C19.1369 13.3224 19.2926 13.6782 19.5609 13.9395C19.8292 14.2009 20.1889 14.3471 20.5635 14.3471C20.938 14.3471 21.2978 14.2009 21.5661 13.9395C21.8344 13.6782 21.9901 13.3224 22 12.948V4.271C21.9901 3.89658 21.8344 3.54081 21.5661 3.27948C21.2978 3.01814 20.938 2.8719 20.5635 2.8719C20.1889 2.8719 19.8292 3.01814 19.5609 3.27948C19.2926 3.54081 19.1369 3.89658 19.127 4.271ZM15.65 4.862C13.973 4.162 8.84 3.44 7.866 3.824C7.351 4.285 6.057 7.183 5.153 9.645C5.08887 9.8198 4.97041 9.96945 4.815 10.072C4.084 10.555 3.706 11.107 3.777 11.588C3.83624 11.8092 3.95641 12.0094 4.12384 12.1657C4.29126 12.322 4.49921 12.4281 4.724 12.472C5.834 12.816 8.556 13.409 8.583 13.415C8.73409 13.4473 8.87401 13.5188 8.98865 13.6224C9.10329 13.726 9.18861 13.8579 9.236 14.005C9.28177 14.1518 9.28736 14.3081 9.25219 14.4578C9.21701 14.6075 9.14236 14.745 9.036 14.856C7.051 16.956 6.699 19.128 7.083 19.994C7.201 20.26 7.324 20.26 7.389 20.26C7.825 20.26 8.028 19.96 8.478 18.66C9.005 17.135 10.824 15.314 13.005 14.13C13.9206 13.617 14.8024 13.0458 15.645 12.42L15.65 4.862ZM8.976 2C11.704 2 15.987 2.893 17.047 3.637C17.1612 3.71653 17.2545 3.82239 17.3191 3.94563C17.3836 4.06888 17.4176 4.20586 17.418 4.345V12.845C17.4176 12.9768 17.3872 13.1067 17.3289 13.2249C17.2707 13.3431 17.1862 13.4464 17.082 13.527C16.0613 14.3096 14.9859 15.0181 13.864 15.647C12.2788 16.4092 10.9796 17.6593 10.157 19.214C9.751 20.391 9.2 22 7.393 22C6.97713 22.0016 6.57052 21.8773 6.2266 21.6435C5.88268 21.4097 5.61753 21.0773 5.466 20.69C4.718 19 5.506 16.656 6.821 14.8C5.936 14.595 4.838 14.328 4.194 14.129C3.65065 13.9949 3.15742 13.7072 2.7733 13.3002C2.38918 12.8932 2.13043 12.3842 2.028 11.834C1.98167 11.2338 2.10266 10.6325 2.37752 10.0969C2.65239 9.56126 3.07036 9.11235 3.585 8.8C4.432 6.52 5.912 2.905 6.985 2.313C7.61729 2.06251 8.29734 1.9556 8.976 2Z" fill="#1C203C"/>
</mask>
<g mask="url(#mask0)">
<rect width="24" height="24" fill="#1C203C"/>
</g>
</svg>
