<svg xmlns="http://www.w3.org/2000/svg" viewBox="0 0 24 24">
  <path d="M19.127 4.271v8.677a1.437 1.437 0 002.873 0V4.271a1.437 1.437 0 00-2.873 0zm-3.477.591c-1.677-.7-6.81-1.422-7.784-1.038-.515.461-1.809 3.359-2.713 5.821a.871.871 0 01-.338.427c-.731.483-1.109 1.035-1.038 1.516a1.223 1.223 0 00.947.884c1.11.344 3.832.937 3.859.943a.879.879 0 01.653.59.86.86 0 01-.2.851c-1.985 2.1-2.337 4.272-1.953 5.138.118.266.241.266.306.266.436 0 .639-.3 1.089-1.6.527-1.525 2.346-3.346 4.527-4.53a24.57 24.57 0 002.64-1.71l.005-7.558zM8.976 2c2.728 0 7.011.893 8.071 1.637a.866.866 0 01.371.708v8.5a.865.865 0 01-.336.682 26.933 26.933 0 01-3.218 2.12 8.227 8.227 0 00-3.707 3.567C9.751 20.391 9.2 22 7.393 22a2.06 2.06 0 01-1.927-1.31c-.748-1.69.04-4.034 1.355-5.89-.885-.205-1.983-.472-2.627-.671a2.913 2.913 0 01-2.166-2.295A3.256 3.256 0 013.585 8.8c.847-2.28 2.327-5.895 3.4-6.487A4.592 4.592 0 018.976 2z"/>
</svg>
