<svg xmlns="http://www.w3.org/2000/svg" viewBox="0 0 24 24">
  <g clip-path="url(#clip0)">
    <path d="M4.43 12.155v-.773a.161.161 0 01.044-.11.146.146 0 01.105-.045h3.027c.04 0 .077.017.105.046a.158.158 0 01.043.109v.773c0 .041-.016.08-.043.11a.145.145 0 01-.105.045h-.923a.068.068 0 00-.053.021.073.073 0 00-.02.056v4.096a.16.16 0 01-.045.109.146.146 0 01-.104.045h-.738a.146.146 0 01-.104-.045.16.16 0 01-.044-.11v-4.095a.076.076 0 00-.02-.056.068.068 0 00-.053-.021h-.924a.144.144 0 01-.104-.046.158.158 0 01-.043-.109zM24 4.08v11.977a.603.603 0 01-.163.41.552.552 0 01-.392.17H12.554v3.282a.594.594 0 01-.162.41.542.542 0 01-.392.17H.554a.542.542 0 01-.391-.17A.593.593 0 010 19.92V7.943c0-.154.058-.301.162-.41a.542.542 0 01.392-.17h10.892V4.08a.603.603 0 01.162-.41A.554.554 0 0112 3.5h11.445c.147 0 .288.061.392.17a.593.593 0 01.162.41zM11.446 8.523H1.2a.09.09 0 00-.065.028.099.099 0 00-.028.068v10.625a.1.1 0 00.028.069.09.09 0 00.065.028h10.154a.09.09 0 00.065-.028.099.099 0 00.027-.069V8.523zm7.717 3.361a.158.158 0 00-.043-.11.145.145 0 00-.105-.044h-.627a.068.068 0 01-.054-.022.074.074 0 01-.02-.056V8.484a.076.076 0 01.02-.056.07.07 0 01.054-.021h.553a.142.142 0 00.105-.045.155.155 0 00.043-.11v-.734a.161.161 0 00-.043-.11.148.148 0 00-.105-.045h-2.289a.142.142 0 00-.104.046.155.155 0 00-.043.11v.733a.161.161 0 00.043.11.147.147 0 00.104.045h.554a.068.068 0 01.053.021.076.076 0 01.02.056v3.168a.076.076 0 01-.02.056.07.07 0 01-.053.022h-.627a.145.145 0 00-.105.045.158.158 0 00-.043.11v.733c0 .041.016.08.044.11a.146.146 0 00.104.045h2.436c.04 0 .077-.017.104-.046a.16.16 0 00.044-.109v-.734z"/>
  </g>
  <defs>
    <clipPath id="clip0">
      <path d="M0 0h24v17H0z" transform="translate(0 3.5)"/>
    </clipPath>
  </defs>
</svg>
