<svg width="132" height="58" viewBox="0 0 132 58" fill="none" xmlns="http://www.w3.org/2000/svg">
<g clip-path="url(#clip0)">
<path d="M25.689 26.65V29.262C25.6885 29.4007 25.6331 29.5336 25.5349 29.6316C25.4367 29.7296 25.3037 29.7847 25.165 29.785H21.891C21.8561 29.7828 21.8212 29.7881 21.7885 29.8004C21.7557 29.8127 21.726 29.8319 21.7013 29.8565C21.6765 29.8812 21.6572 29.9108 21.6448 29.9435C21.6323 29.9762 21.627 30.0111 21.629 30.046V43.891C21.6285 44.0297 21.5731 44.1626 21.4749 44.2606C21.3767 44.3586 21.2437 44.4137 21.105 44.414H18.485C18.3463 44.4137 18.2133 44.3586 18.1151 44.2606C18.0169 44.1626 17.9615 44.0297 17.961 43.891V30.046C17.9631 30.0111 17.9577 29.9762 17.9452 29.9435C17.9328 29.9108 17.9135 29.8812 17.8887 29.8565C17.864 29.8319 17.8343 29.8127 17.8016 29.8004C17.7688 29.7881 17.7339 29.7828 17.699 29.785H14.425C14.2862 29.785 14.1531 29.7299 14.0548 29.6319C13.9566 29.5338 13.9013 29.4008 13.901 29.262V26.65C13.9013 26.5112 13.9566 26.3782 14.0548 26.2801C14.1531 26.1821 14.2862 26.127 14.425 26.127H25.165C25.3038 26.127 25.4369 26.1821 25.5352 26.2801C25.6334 26.3782 25.6887 26.5112 25.689 26.65ZM40.098 26.127H37.453C37.3142 26.127 37.1811 26.1821 37.0828 26.2801C36.9846 26.3782 36.9293 26.5112 36.929 26.65V38.928C36.929 40.077 35.986 41.018 34.388 41.018C34.0853 41.0558 33.7781 41.0307 33.4856 40.9443C33.1931 40.8579 32.9215 40.7121 32.688 40.5159C32.4544 40.3197 32.2639 40.0774 32.1283 39.8042C31.9927 39.5309 31.915 39.2327 31.9 38.928V26.65C31.8995 26.5113 31.8441 26.3784 31.7459 26.2804C31.6477 26.1824 31.5147 26.1273 31.376 26.127H28.73C28.5911 26.127 28.4579 26.182 28.3595 26.2801C28.2611 26.3781 28.2055 26.5111 28.205 26.65V38.928C28.3194 40.4964 29.0232 41.9634 30.1749 43.0341C31.3266 44.1049 32.8409 44.7001 34.4135 44.7001C35.9861 44.7001 37.5004 44.1049 38.6521 43.0341C39.8038 41.9634 40.5076 40.4964 40.622 38.928V26.65C40.6217 26.5112 40.5664 26.3782 40.4682 26.2801C40.3699 26.1821 40.2368 26.127 40.098 26.127ZM54.875 26.127H52.255C52.1162 26.127 51.9831 26.1821 51.8848 26.2801C51.7866 26.3782 51.7313 26.5112 51.731 26.65V36.472C51.731 36.629 51.548 36.681 51.495 36.524L47.907 26.6C47.8679 26.4586 47.7816 26.3349 47.6625 26.2494C47.5433 26.1639 47.3984 26.1217 47.252 26.13H44.134C43.9953 26.1303 43.8623 26.1854 43.7641 26.2834C43.6659 26.3814 43.6105 26.5143 43.61 26.653V43.891C43.6105 44.0297 43.6659 44.1626 43.7641 44.2606C43.8623 44.3586 43.9953 44.4137 44.134 44.414H46.753C46.8918 44.414 47.0249 44.3589 47.1232 44.2609C47.2214 44.1628 47.2767 44.0298 47.277 43.891V34.852C47.277 34.695 47.46 34.644 47.513 34.8L51.076 43.969C51.1273 44.1114 51.2248 44.2325 51.3529 44.313C51.4811 44.3934 51.6325 44.4287 51.783 44.413H54.875C55.0135 44.4125 55.1463 44.3572 55.2442 44.2592C55.3422 44.1613 55.3975 44.0285 55.398 43.89V26.65C55.3977 26.5114 55.3426 26.3785 55.2445 26.2805C55.1465 26.1824 55.0136 26.1273 54.875 26.127ZM68.446 40.756H62.238C62.2031 40.7582 62.1681 40.7529 62.1353 40.7406C62.1026 40.7283 62.0728 40.7092 62.0479 40.6845C62.0231 40.6599 62.0038 40.6302 61.9912 40.5976C61.9786 40.5649 61.9731 40.5299 61.975 40.495V37.36C61.9731 37.3251 61.9786 37.2901 61.9912 37.2574C62.0038 37.2248 62.0231 37.1951 62.0479 37.1705C62.0728 37.1458 62.1026 37.1267 62.1353 37.1144C62.1681 37.1021 62.2031 37.0968 62.238 37.099H68.132C68.2708 37.099 68.4039 37.0439 68.5022 36.9459C68.6004 36.8478 68.6557 36.7148 68.656 36.576V33.964C68.6555 33.8253 68.6001 33.6924 68.5019 33.5944C68.4037 33.4964 68.2707 33.4413 68.132 33.441H62.238C62.2031 33.4432 62.1681 33.4379 62.1353 33.4256C62.1026 33.4133 62.0728 33.3942 62.0479 33.3695C62.0231 33.3449 62.0038 33.3152 61.9912 33.2826C61.9786 33.2499 61.9731 33.2149 61.975 33.18V30.046C61.9731 30.011 61.9786 29.9761 61.9912 29.9434C62.0038 29.9108 62.0231 29.8811 62.0479 29.8565C62.0728 29.8318 62.1026 29.8127 62.1353 29.8004C62.1681 29.7881 62.2031 29.7828 62.238 29.785H68.338C68.4767 29.7847 68.6097 29.7296 68.7079 29.6316C68.8061 29.5336 68.8615 29.4007 68.862 29.262V26.65C68.8617 26.5112 68.8064 26.3782 68.7082 26.2801C68.6099 26.1821 68.4768 26.127 68.338 26.127H58.829C58.6902 26.127 58.5571 26.1821 58.4588 26.2801C58.3606 26.3782 58.3053 26.5112 58.305 26.65V43.891C58.3055 44.0297 58.3609 44.1626 58.4591 44.2606C58.5573 44.3586 58.6903 44.4137 58.829 44.414H68.446C68.5847 44.4137 68.7177 44.3586 68.8159 44.2606C68.9141 44.1626 68.9695 44.0297 68.97 43.891V41.278C68.9692 41.1395 68.9137 41.0068 68.8155 40.9091C68.7174 40.8113 68.5846 40.7563 68.446 40.756ZM131.146 1.96V42.46C131.146 42.7177 131.095 42.9729 130.996 43.2109C130.897 43.4489 130.752 43.6651 130.57 43.8471C130.387 44.0291 130.171 44.1734 129.932 44.2717C129.694 44.37 129.439 44.4204 129.181 44.42H83.986V55.52C83.9857 55.7777 83.9347 56.0329 83.8358 56.2709C83.7369 56.5089 83.5921 56.7251 83.4096 56.9071C83.2271 57.0891 83.0105 57.2334 82.7723 57.3317C82.534 57.43 82.2787 57.4804 82.021 57.48H2.111C1.85327 57.4804 1.59798 57.43 1.35972 57.3317C1.12146 57.2334 0.904908 57.0891 0.722427 56.9071C0.539947 56.7251 0.395116 56.5089 0.296211 56.2709C0.197306 56.0329 0.146266 55.7777 0.146004 55.52V15.02C0.146266 14.7623 0.197306 14.5071 0.296211 14.2691C0.395116 14.0311 0.539947 13.8149 0.722427 13.6329C0.904908 13.4509 1.12146 13.3066 1.35972 13.2083C1.59798 13.11 1.85327 13.0596 2.111 13.06H80.056V1.96C80.0563 1.70226 80.1073 1.4471 80.2062 1.20909C80.3051 0.971088 80.4499 0.754902 80.6324 0.572886C80.8149 0.39087 81.0315 0.246593 81.2697 0.148295C81.508 0.0499967 81.7633 -0.000395748 82.021 -1.5194e-06H129.181C129.439 -0.000395748 129.694 0.0499967 129.932 0.148295C130.171 0.246593 130.387 0.39087 130.57 0.572886C130.752 0.754902 130.897 0.971088 130.996 1.20909C131.095 1.4471 131.146 1.70226 131.146 1.96ZM80.056 16.983H4.403C4.31628 16.983 4.2331 17.0174 4.17178 17.0788C4.11046 17.1401 4.076 17.2233 4.076 17.31V53.235C4.076 53.3217 4.11046 53.4049 4.17178 53.4662C4.2331 53.5275 4.31628 53.562 4.403 53.562H79.728C79.8147 53.562 79.8979 53.5275 79.9592 53.4662C80.0205 53.4049 80.055 53.3217 80.055 53.235L80.056 16.983ZM103.503 28.346C103.503 28.2072 103.447 28.0742 103.349 27.9761C103.251 27.8781 103.118 27.823 102.979 27.823H100.753C100.718 27.8252 100.683 27.8199 100.65 27.8076C100.618 27.7953 100.588 27.7761 100.563 27.7515C100.538 27.7268 100.519 27.6971 100.507 27.6645C100.494 27.6318 100.489 27.5969 100.491 27.562V16.851C100.489 16.8161 100.494 16.7811 100.507 16.7484C100.519 16.7157 100.538 16.686 100.563 16.6612C100.588 16.6365 100.618 16.6172 100.65 16.6048C100.683 16.5923 100.718 16.587 100.753 16.589H102.718C102.856 16.5887 102.989 16.5337 103.087 16.4359C103.185 16.3381 103.24 16.2055 103.241 16.067V13.586C103.241 13.4474 103.186 13.3145 103.088 13.2165C102.99 13.1185 102.857 13.0633 102.718 13.063H94.597C94.4581 13.063 94.3249 13.118 94.2265 13.2161C94.1281 13.3141 94.0725 13.4471 94.072 13.586V16.067C94.0728 16.2057 94.1285 16.3385 94.2268 16.4363C94.3252 16.5341 94.4583 16.589 94.597 16.589H96.561C96.5959 16.587 96.6309 16.5923 96.6636 16.6048C96.6963 16.6172 96.726 16.6365 96.7508 16.6612C96.7755 16.686 96.7948 16.7157 96.8072 16.7484C96.8197 16.7811 96.825 16.8161 96.823 16.851V27.561C96.8251 27.5959 96.8197 27.6308 96.8072 27.6635C96.7948 27.6961 96.7755 27.7258 96.7508 27.7505C96.726 27.7751 96.6963 27.7943 96.6636 27.8066C96.6308 27.8189 96.5959 27.8242 96.561 27.822H94.335C94.1963 27.8223 94.0633 27.8774 93.9651 27.9754C93.8669 28.0734 93.8115 28.2063 93.811 28.345V30.826C93.8115 30.9647 93.8669 31.0976 93.9651 31.1956C94.0633 31.2936 94.1963 31.3487 94.335 31.349H102.979C103.118 31.349 103.251 31.2939 103.349 31.1959C103.447 31.0978 103.503 30.9648 103.503 30.826V28.346ZM118.203 13.587C118.203 13.4484 118.148 13.3155 118.05 13.2175C117.951 13.1194 117.819 13.0643 117.68 13.064H115.06C114.921 13.064 114.788 13.1191 114.69 13.2171C114.592 13.3152 114.536 13.4482 114.536 13.587V23.409C114.536 23.566 114.353 23.618 114.3 23.461L110.711 13.535C110.672 13.3937 110.585 13.2701 110.466 13.1846C110.347 13.0991 110.202 13.0569 110.056 13.065H106.939C106.8 13.0653 106.667 13.1204 106.569 13.2184C106.471 13.3164 106.416 13.4493 106.415 13.588V30.827C106.416 30.9657 106.471 31.0986 106.569 31.1966C106.667 31.2946 106.8 31.3497 106.939 31.35H109.558C109.697 31.35 109.83 31.2949 109.928 31.1969C110.026 31.0988 110.082 30.9658 110.082 30.827V21.788C110.082 21.631 110.265 21.58 110.318 21.736L113.881 30.905C113.932 31.0474 114.03 31.1685 114.158 31.249C114.286 31.3294 114.437 31.3647 114.588 31.349H117.68C117.819 31.3485 117.951 31.2932 118.049 31.1952C118.147 31.0973 118.202 30.9645 118.203 30.826V13.587Z" fill="#1C203C"/>
</g>
<defs>
<clipPath id="clip0">
<rect width="131" height="57.48" fill="white" transform="translate(0.146004)"/>
</clipPath>
</defs>
</svg>
