<svg width="132" height="132" viewBox="0 0 132 132" fill="none" xmlns="http://www.w3.org/2000/svg">
<path d="M26.043 63.91V66.522C26.0425 66.6607 25.9871 66.7936 25.8889 66.8916C25.7907 66.9896 25.6577 67.0447 25.519 67.045H22.245C22.2101 67.0428 22.1752 67.0481 22.1424 67.0604C22.1097 67.0727 22.08 67.0919 22.0553 67.1165C22.0305 67.1412 22.0112 67.1708 21.9988 67.2035C21.9863 67.2362 21.981 67.2711 21.983 67.306V81.151C21.9825 81.2897 21.9271 81.4226 21.8289 81.5206C21.7307 81.6186 21.5977 81.6737 21.459 81.674H18.839C18.7003 81.6737 18.5673 81.6186 18.4691 81.5206C18.3709 81.4226 18.3155 81.2897 18.315 81.151V67.306C18.3171 67.2711 18.3117 67.2362 18.2992 67.2035C18.2868 67.1708 18.2675 67.1412 18.2427 67.1165C18.218 67.0919 18.1883 67.0727 18.1555 67.0604C18.1228 67.0481 18.0879 67.0428 18.053 67.045H14.779C14.6402 67.045 14.5071 66.9899 14.4088 66.8919C14.3106 66.7938 14.2553 66.6608 14.255 66.522V63.91C14.2553 63.7712 14.3106 63.6382 14.4088 63.5401C14.5071 63.4421 14.6402 63.387 14.779 63.387H25.519C25.6578 63.387 25.7909 63.4421 25.8892 63.5401C25.9874 63.6382 26.0427 63.7712 26.043 63.91ZM40.452 63.387H37.807C37.6682 63.387 37.5351 63.4421 37.4368 63.5401C37.3386 63.6382 37.2833 63.7712 37.283 63.91V76.188C37.283 77.337 36.34 78.278 34.742 78.278C34.4393 78.3158 34.1321 78.2907 33.8396 78.2043C33.5471 78.1179 33.2755 77.972 33.042 77.7759C32.8084 77.5797 32.6179 77.3374 32.4823 77.0642C32.3467 76.7909 32.269 76.4926 32.254 76.188V63.91C32.2535 63.7713 32.1981 63.6384 32.0999 63.5404C32.0017 63.4424 31.8687 63.3873 31.73 63.387H29.084C28.9451 63.387 28.8119 63.442 28.7135 63.5401C28.6151 63.6381 28.5595 63.7711 28.559 63.91V76.188C28.6734 77.7564 29.3772 79.2234 30.5289 80.2941C31.6806 81.3649 33.1949 81.9601 34.7675 81.9601C36.3401 81.9601 37.8544 81.3649 39.0061 80.2941C40.1578 79.2234 40.8616 77.7564 40.976 76.188V63.91C40.9757 63.7712 40.9204 63.6382 40.8222 63.5401C40.7239 63.4421 40.5908 63.387 40.452 63.387ZM55.229 63.387H52.609C52.4702 63.387 52.3371 63.4421 52.2388 63.5401C52.1406 63.6382 52.0853 63.7712 52.085 63.91V73.732C52.085 73.889 51.902 73.941 51.849 73.784L48.261 63.86C48.2219 63.7186 48.1356 63.5949 48.0165 63.5094C47.8973 63.4239 47.7524 63.3817 47.606 63.39H44.488C44.3493 63.3903 44.2163 63.4454 44.1181 63.5434C44.0199 63.6414 43.9645 63.7743 43.964 63.913V81.151C43.9645 81.2897 44.0199 81.4226 44.1181 81.5206C44.2163 81.6186 44.3493 81.6737 44.488 81.674H47.107C47.2458 81.674 47.3789 81.6189 47.4772 81.5209C47.5754 81.4228 47.6307 81.2898 47.631 81.151V72.112C47.631 71.955 47.814 71.904 47.867 72.06L51.43 81.229C51.4813 81.3714 51.5788 81.4925 51.7069 81.5729C51.8351 81.6534 51.9865 81.6887 52.137 81.673H55.229C55.3675 81.6725 55.5003 81.6172 55.5982 81.5192C55.6962 81.4213 55.7515 81.2885 55.752 81.15V63.91C55.7517 63.7714 55.6965 63.6385 55.5985 63.5405C55.5005 63.4424 55.3676 63.3873 55.229 63.387ZM68.8 78.016H62.592C62.5571 78.0182 62.5221 78.0129 62.4893 78.0006C62.4566 77.9883 62.4268 77.9692 62.4019 77.9445C62.3771 77.9199 62.3578 77.8902 62.3452 77.8576C62.3326 77.8249 62.3271 77.7899 62.329 77.755V74.62C62.3271 74.5851 62.3326 74.5501 62.3452 74.5174C62.3578 74.4848 62.3771 74.4551 62.4019 74.4305C62.4268 74.4058 62.4566 74.3867 62.4893 74.3744C62.5221 74.3621 62.5571 74.3568 62.592 74.359H68.486C68.6248 74.359 68.7579 74.3039 68.8562 74.2059C68.9544 74.1078 69.0097 73.9748 69.01 73.836V71.224C69.0095 71.0853 68.9541 70.9524 68.8559 70.8544C68.7577 70.7564 68.6247 70.7013 68.486 70.701H62.592C62.5571 70.7032 62.5221 70.6979 62.4893 70.6856C62.4566 70.6733 62.4268 70.6542 62.4019 70.6295C62.3771 70.6049 62.3578 70.5752 62.3452 70.5426C62.3326 70.5099 62.3271 70.4749 62.329 70.44V67.306C62.3271 67.271 62.3326 67.2361 62.3452 67.2034C62.3578 67.1708 62.3771 67.1411 62.4019 67.1165C62.4268 67.0918 62.4566 67.0727 62.4893 67.0604C62.5221 67.0481 62.5571 67.0428 62.592 67.045H68.692C68.8307 67.0447 68.9637 66.9896 69.0619 66.8916C69.1601 66.7936 69.2155 66.6607 69.216 66.522V63.91C69.2157 63.7712 69.1604 63.6382 69.0622 63.5401C68.9639 63.4421 68.8308 63.387 68.692 63.387H59.183C59.0442 63.387 58.9111 63.4421 58.8128 63.5401C58.7146 63.6382 58.6593 63.7712 58.659 63.91V81.151C58.6595 81.2897 58.7149 81.4226 58.8131 81.5206C58.9113 81.6186 59.0443 81.6737 59.183 81.674H68.8C68.9387 81.6737 69.0717 81.6186 69.1699 81.5206C69.2681 81.4226 69.3235 81.2897 69.324 81.151V78.538C69.3232 78.3995 69.2677 78.2668 69.1695 78.1691C69.0714 78.0713 68.9386 78.0163 68.8 78.016ZM131.5 39.22V79.72C131.5 79.9777 131.449 80.2329 131.35 80.4709C131.251 80.7089 131.106 80.9251 130.924 81.1071C130.741 81.2891 130.525 81.4334 130.286 81.5317C130.048 81.63 129.793 81.6804 129.535 81.68H84.34V92.78C84.3397 93.0377 84.2887 93.2929 84.1898 93.5309C84.0909 93.7689 83.9461 93.9851 83.7636 94.1671C83.5811 94.3491 83.3645 94.4934 83.1263 94.5917C82.888 94.69 82.6327 94.7404 82.375 94.74H2.465C2.20726 94.7404 1.95197 94.69 1.71371 94.5917C1.47546 94.4934 1.2589 94.3491 1.07642 94.1671C0.893943 93.9851 0.749112 93.7689 0.650208 93.5309C0.551303 93.2929 0.500262 93.0377 0.5 92.78V52.28C0.500262 52.0223 0.551303 51.7671 0.650208 51.5291C0.749112 51.2911 0.893943 51.0749 1.07642 50.8929C1.2589 50.7109 1.47546 50.5666 1.71371 50.4683C1.95197 50.37 2.20726 50.3196 2.465 50.32H80.41V39.22C80.4103 38.9623 80.4613 38.7071 80.5602 38.4691C80.6591 38.2311 80.8039 38.0149 80.9864 37.8329C81.1689 37.6509 81.3855 37.5066 81.6237 37.4083C81.862 37.31 82.1173 37.2596 82.375 37.26H129.535C129.793 37.2596 130.048 37.31 130.286 37.4083C130.525 37.5066 130.741 37.6509 130.924 37.8329C131.106 38.0149 131.251 38.2311 131.35 38.4691C131.449 38.7071 131.5 38.9623 131.5 39.22ZM80.41 54.243H4.757C4.67027 54.243 4.5871 54.2774 4.52578 54.3388C4.46445 54.4001 4.43 54.4833 4.43 54.57V90.495C4.43 90.5817 4.46445 90.6649 4.52578 90.7262C4.5871 90.7875 4.67027 90.822 4.757 90.822H80.082C80.1687 90.822 80.2519 90.7875 80.3132 90.7262C80.3745 90.6649 80.409 90.5817 80.409 90.495L80.41 54.243ZM103.857 65.606C103.857 65.4672 103.801 65.3342 103.703 65.2361C103.605 65.1381 103.472 65.083 103.333 65.083H101.107C101.072 65.0852 101.037 65.0799 101.004 65.0676C100.972 65.0553 100.942 65.0361 100.917 65.0115C100.892 64.9868 100.873 64.9571 100.861 64.9245C100.848 64.8918 100.843 64.8569 100.845 64.822V54.111C100.843 54.0761 100.848 54.0411 100.861 54.0084C100.873 53.9757 100.892 53.946 100.917 53.9212C100.942 53.8965 100.972 53.8772 101.004 53.8648C101.037 53.8523 101.072 53.847 101.107 53.849H103.072C103.21 53.8487 103.343 53.7937 103.441 53.6959C103.539 53.5981 103.594 53.4655 103.595 53.327V50.846C103.595 50.7074 103.54 50.5745 103.442 50.4765C103.344 50.3784 103.211 50.3233 103.072 50.323H94.951C94.8121 50.323 94.6789 50.378 94.5805 50.4761C94.4821 50.5741 94.4265 50.7071 94.426 50.846V53.327C94.4268 53.4657 94.4825 53.5985 94.5808 53.6963C94.6792 53.7941 94.8123 53.849 94.951 53.849H96.915C96.9499 53.847 96.9849 53.8523 97.0176 53.8648C97.0503 53.8772 97.08 53.8965 97.1048 53.9212C97.1295 53.946 97.1488 53.9757 97.1612 54.0084C97.1737 54.0411 97.179 54.0761 97.177 54.111V64.821C97.1791 64.8559 97.1737 64.8908 97.1612 64.9235C97.1488 64.9561 97.1295 64.9858 97.1048 65.0105C97.08 65.0351 97.0503 65.0543 97.0175 65.0666C96.9848 65.0789 96.9499 65.0842 96.915 65.082H94.689C94.5503 65.0823 94.4173 65.1374 94.3191 65.2354C94.2209 65.3334 94.1655 65.4663 94.165 65.605V68.086C94.1655 68.2247 94.2209 68.3576 94.3191 68.4556C94.4173 68.5536 94.5503 68.6087 94.689 68.609H103.333C103.472 68.609 103.605 68.5539 103.703 68.4559C103.801 68.3578 103.857 68.2248 103.857 68.086V65.606ZM118.557 50.847C118.557 50.7084 118.502 50.5755 118.404 50.4775C118.305 50.3794 118.173 50.3243 118.034 50.324H115.414C115.275 50.324 115.142 50.3791 115.044 50.4771C114.946 50.5752 114.89 50.7082 114.89 50.847V60.669C114.89 60.826 114.707 60.878 114.654 60.721L111.065 50.795C111.026 50.6537 110.939 50.5301 110.82 50.4446C110.701 50.3591 110.556 50.3169 110.41 50.325H107.293C107.154 50.3253 107.021 50.3804 106.923 50.4784C106.825 50.5764 106.77 50.7093 106.769 50.848V68.087C106.77 68.2257 106.825 68.3586 106.923 68.4566C107.021 68.5546 107.154 68.6097 107.293 68.61H109.912C110.051 68.61 110.184 68.5549 110.282 68.4569C110.38 68.3588 110.436 68.2258 110.436 68.087V59.048C110.436 58.891 110.619 58.84 110.672 58.996L114.235 68.165C114.286 68.3074 114.384 68.4285 114.512 68.509C114.64 68.5894 114.791 68.6247 114.942 68.609H118.034C118.173 68.6085 118.305 68.5532 118.403 68.4552C118.501 68.3573 118.556 68.2245 118.557 68.086V50.847Z" fill="#1C203C"/>
</svg>
