<svg xmlns="http://www.w3.org/2000/svg" viewBox="0 0 24 24">
  <path d="M23.075 5.131c-.83.368-1.71.609-2.61.716a4.558 4.558 0 002-2.514 9.1 9.1 0 01-2.887 1.1 4.549 4.549 0 00-7.744 4.147 12.9 12.9 0 01-9.366-4.748A4.549 4.549 0 003.873 9.9a4.528 4.528 0 01-2.058-.57v.057a4.547 4.547 0 003.645 4.456 4.552 4.552 0 01-2.051.078 4.55 4.55 0 004.245 3.156 9.118 9.118 0 01-5.644 1.945c-.363 0-.725-.02-1.085-.063A12.863 12.863 0 007.891 21a12.84 12.84 0 0012.93-12.929c0-.2-.005-.396-.014-.588a9.24 9.24 0 002.268-2.352z"/>
</svg>
