<svg width="24" height="24" viewBox="0 0 24 24" fill="none" xmlns="http://www.w3.org/2000/svg">
<mask id="mask0" mask-type="alpha" maskUnits="userSpaceOnUse" x="0" y="2" width="24" height="20">
<path fill-rule="evenodd" clip-rule="evenodd" d="M23.0745 5.13097C22.2451 5.49859 21.3654 5.73993 20.4645 5.84697C21.4142 5.27946 22.125 4.38592 22.4645 3.33297C21.5722 3.8614 20.5962 4.23343 19.5785 4.43297C18.8932 3.70399 17.9867 3.22126 16.9993 3.05955C16.012 2.89783 14.9988 3.06614 14.1168 3.53842C13.2347 4.01071 12.533 4.76061 12.1202 5.67202C11.7075 6.58343 11.6067 7.6055 11.8335 8.57997C10.0267 8.48954 8.25911 8.02008 6.64553 7.2021C5.03195 6.38411 3.60847 5.23588 2.46751 3.83197C1.88609 4.83251 1.70785 6.01702 1.96906 7.14436C2.23027 8.27169 2.9113 9.2571 3.87351 9.89997C3.15187 9.87677 2.44625 9.68133 1.81551 9.32997C1.81551 9.34897 1.81551 9.36797 1.81551 9.38697C1.81565 10.4362 2.17867 11.4531 2.84301 12.2653C3.50734 13.0774 4.43211 13.6348 5.46051 13.843C4.79138 14.025 4.08952 14.0516 3.40851 13.921C3.69877 14.8239 4.264 15.6135 5.02513 16.1794C5.78626 16.7453 6.70524 17.0591 7.65351 17.077C6.04372 18.3403 4.05579 19.0253 2.00951 19.022C1.64725 19.0222 1.2853 19.0012 0.925507 18.959C3.00341 20.294 5.42172 21.0025 7.89151 21C9.59263 21.0117 11.2791 20.6852 12.853 20.0396C14.4269 19.394 15.8569 18.4421 17.0598 17.2392C18.2627 16.0363 19.2146 14.6064 19.8602 13.0325C20.5058 11.4586 20.8322 9.7721 20.8205 8.07097C20.8205 7.87097 20.8162 7.67497 20.8075 7.48297C21.6969 6.83985 22.4645 6.0434 23.0745 5.13097Z" fill="#1C203C"/>
</mask>
<g mask="url(#mask0)">
<rect width="24" height="24" fill="#1C203C"/>
</g>
</svg>
