<svg width="24" height="24" viewBox="0 0 24 24" fill="none" xmlns="http://www.w3.org/2000/svg">
<path fill-rule="evenodd" clip-rule="evenodd" d="M2.56182 6.10517C2.19495 6.89269 2 7.75745 2 8.6415C2 10.1739 2.58575 11.6484 3.63733 12.763L11.6093 21.063C11.7132 21.1664 11.8538 21.2245 12.0003 21.2245C12.1469 21.2245 12.2875 21.1664 12.3913 21.063L14.9038 18.4472L2.56182 6.10517ZM17.3959 15.8525L20.3633 12.763C21.4149 11.6484 22.0007 10.1739 22.0007 8.6415C22.0007 7.1091 21.4149 5.63465 20.3633 4.52C19.9098 4.04285 19.364 3.66291 18.759 3.40329C18.1541 3.14368 17.5026 3.0098 16.8443 3.0098C16.186 3.0098 15.5346 3.14368 14.9296 3.40329C14.3247 3.66291 13.7789 4.04285 13.3253 4.52L11.9993 5.932L10.6743 4.52C10.2214 4.04166 9.67603 3.66028 9.0713 3.399C8.46658 3.13772 7.81509 3.00198 7.15633 3V3.033C6.49997 3.03184 5.85011 3.16292 5.24551 3.4184C5.17952 3.44628 5.11421 3.47559 5.04963 3.50628L17.3959 15.8525Z" fill="black"/>
<rect x="2.52962" y="2.40273" width="24.9307" height="1.57648" rx="0.788241" transform="rotate(45 2.52962 2.40273)" fill="black"/>
</svg>
