<svg xmlns="http://www.w3.org/2000/svg" viewBox="0 0 24 24">
  <path d="M18.17 4.128a11.621 11.621 0 010 15.728.461.461 0 01-.66 0l-1-1a.45.45 0 010-.631 9.265 9.265 0 00.06-12.372l-.06-.07a.451.451 0 010-.631l1-1a.46.46 0 01.66-.02v-.004zm-8.525 0a.681.681 0 011.053.5v14.758a.68.68 0 01-1.053.5l-2.914-3.927H3.264a.49.49 0 01-.5-.461V8.486a.49.49 0 01.5-.461H6.73l2.915-3.897zm5.18 3.356a6.9 6.9 0 010 9.016.47.47 0 01-.681 0l-1-1a.46.46 0 010-.621 4.517 4.517 0 00.12-5.6l-.12-.15a.46.46 0 010-.621l1-1a.47.47 0 01.68-.02v-.004z"/>
</svg>
