<svg xmlns="http://www.w3.org/2000/svg" viewBox="0 0 24 24">
  <path d="M11.136 4.064a.681.681 0 01.367.447l.018.1V19.39a.682.682 0 01-.963.55l-.09-.05-2.876-3.888h-3.5a.491.491 0 01-.494-.412l-.006-.078V8.525a.491.491 0 01.5-.535h3.5l2.877-3.88a.68.68 0 01.667-.046zm3.818 4.6c.105 0 .208.035.292.1l.059.053 1.77 1.773 1.773-1.772a.5.5 0 01.65-.052l.06.052.7.71a.481.481 0 01.054.643l-.053.059-1.782 1.772 1.772 1.772a.5.5 0 01.052.65l-.052.06-.7.7a.5.5 0 01-.651.053l-.06-.052-1.772-1.775-1.774 1.772a.481.481 0 01-.642.053l-.058-.053-.711-.7a.5.5 0 01-.052-.651l.052-.06 1.772-1.772-1.772-1.772a.481.481 0 01-.053-.642l.053-.06.72-.71a.48.48 0 01.353-.152z"/>
</svg>
