<svg width="24" height="24" viewBox="0 0 24 24" fill="none" xmlns="http://www.w3.org/2000/svg">
<mask id="mask0" mask-type="alpha" maskUnits="userSpaceOnUse" x="2" y="4" width="20" height="16">
<path fill-rule="evenodd" clip-rule="evenodd" d="M18.1705 4.12784C20.1416 6.27241 21.2355 9.07902 21.2355 11.9918C21.2355 14.9047 20.1416 17.7113 18.1705 19.8558C18.1275 19.9 18.0762 19.9351 18.0194 19.9591C17.9626 19.9831 17.9016 19.9954 17.84 19.9954C17.7784 19.9954 17.7174 19.9831 17.6606 19.9591C17.6038 19.9351 17.5525 19.9 17.5095 19.8558L16.5095 18.8558C16.427 18.7716 16.3808 18.6583 16.3808 18.5403C16.3808 18.4224 16.427 18.3091 16.5095 18.2248C18.0421 16.5323 18.8958 14.3336 18.9068 12.0503C18.9179 9.76707 18.0856 7.56013 16.5695 5.85284L16.5095 5.78284C16.427 5.69855 16.3808 5.58529 16.3808 5.46734C16.3808 5.34938 16.427 5.23612 16.5095 5.15184L17.5095 4.15184C17.5511 4.10633 17.6014 4.06964 17.6575 4.04392C17.7135 4.01821 17.7741 4.004 17.8358 4.00213C17.8974 4.00027 17.9588 4.01079 18.0163 4.03307C18.0738 4.05534 18.1262 4.08893 18.1705 4.13184V4.12784ZM9.6455 4.12784C9.74329 4.06345 9.85603 4.02537 9.97284 4.01726C10.0896 4.00916 10.2066 4.0313 10.3123 4.08156C10.4181 4.13182 10.5091 4.2085 10.5765 4.30419C10.644 4.39988 10.6857 4.51135 10.6975 4.62784V19.3858C10.6857 19.5023 10.644 19.6138 10.5765 19.7095C10.5091 19.8052 10.4181 19.8818 10.3123 19.9321C10.2066 19.9824 10.0896 20.0045 9.97284 19.9964C9.85603 19.9883 9.74329 19.9502 9.6455 19.8858L6.7305 15.9588H3.2645C3.13776 15.9614 3.01495 15.9148 2.92176 15.8289C2.82857 15.743 2.77221 15.6244 2.7645 15.4978V8.48584C2.77221 8.35931 2.82857 8.24068 2.92176 8.15475C3.01495 8.06883 3.13776 8.02228 3.2645 8.02484H6.7305L9.6455 4.12784ZM14.8245 7.48384C15.9058 8.73684 16.5007 10.3368 16.5007 11.9918C16.5007 13.6469 15.9058 15.2468 14.8245 16.4998C14.7805 16.5458 14.7277 16.5825 14.6692 16.6075C14.6106 16.6325 14.5476 16.6454 14.484 16.6454C14.4203 16.6454 14.3574 16.6325 14.2988 16.6075C14.2403 16.5825 14.1875 16.5458 14.1435 16.4998L13.1435 15.4998C13.0661 15.4149 13.0232 15.3042 13.0232 15.1893C13.0232 15.0745 13.0661 14.9637 13.1435 14.8788C13.7905 14.095 14.1543 13.1158 14.176 12.0997C14.1978 11.0835 13.8763 10.0897 13.2635 9.27884L13.1435 9.12884C13.0661 9.04393 13.0232 8.9332 13.0232 8.81834C13.0232 8.70347 13.0661 8.59274 13.1435 8.50784L14.1435 7.50784C14.1861 7.46051 14.2379 7.42231 14.2957 7.39555C14.3534 7.3688 14.4161 7.35404 14.4797 7.35217C14.5434 7.3503 14.6067 7.36136 14.666 7.38468C14.7253 7.408 14.7792 7.44309 14.8245 7.48784V7.48384Z" fill="#1C203C"/>
</mask>
<g mask="url(#mask0)">
<rect width="24" height="24" fill="#1C203C"/>
</g>
</svg>
