<svg width="375" height="176" viewBox="0 0 375 176" fill="none" xmlns="http://www.w3.org/2000/svg">
<path opacity="0.04" d="M14.6256 26.2038C10.0407 20.6108 27.9898 1.98982 32.6074 7.62182C37.225 13.2538 19.2115 31.7968 14.6256 26.2038ZM117.286 252.884C112.669 247.252 94.7184 265.873 99.3044 271.466C103.89 277.059 121.904 258.516 117.286 252.884ZM377.029 192.495C373.01 187.595 356.249 205.826 361.175 211.833C366.101 217.84 381.727 198.224 377.029 192.495ZM291.161 197.995C302.378 211.677 358.289 140.595 363.088 146.448C367.887 152.301 352.117 173.932 359.536 182.978C366.956 192.024 395.962 158.243 399.233 162.23C402.505 166.217 394.216 175.799 397.488 179.79C400.76 183.781 429.445 138.417 424.1 131.898C418.756 125.379 400.11 144.664 395.529 139.077C390.948 133.49 421.265 92.7868 414.176 84.1428C407.086 75.4988 362.028 132.813 356.588 126.178C353.082 121.902 368.847 102.019 365.041 97.3778C359.696 90.8568 279.944 184.318 291.161 198V197.995ZM296.249 120.682C298.389 123.292 316.889 103.419 312.033 97.4898C309.865 94.8448 300.008 101.281 298.362 99.2738C295.648 95.9638 320.752 66.2018 317.155 61.8138C311.794 55.2748 268.528 104.729 277.632 115.833C282.287 121.511 297.696 109.795 298.62 110.919C299.543 112.043 293.77 117.668 296.245 120.687L296.249 120.682ZM24.5232 141.806C21.7392 138.406 -2.33663 164.266 3.98785 171.98C6.80929 175.421 19.6359 167.047 21.7747 169.659C25.3056 173.965 -7.35646 212.688 -2.67646 218.397C4.2989 226.905 60.5875 162.562 48.7459 148.115C42.6893 140.728 22.6387 155.97 21.4397 154.508C20.2407 153.046 27.7421 145.734 24.5232 141.806ZM380.456 232.738C377.345 228.944 350.445 257.833 357.512 266.452C360.663 270.297 374.992 260.941 377.384 263.859C381.328 268.67 344.835 311.935 350.064 318.314C357.857 327.82 420.752 255.929 407.519 239.787C400.752 231.533 378.349 248.564 377.009 246.93C375.669 245.296 384.054 237.127 380.456 232.738ZM140.331 209.904C144.351 214.804 179.019 174.704 171.741 165.829C164.463 156.954 142.533 180.929 139.093 176.729C135.652 172.529 182.869 125.929 175.436 116.853C162.155 100.653 64.3239 217.107 79.6464 235.796C86.5412 244.208 141.608 190.436 143.902 193.243C146.197 196.05 136.31 205 140.331 209.904ZM16.2643 122.821C20.6554 128.176 58.513 84.3848 50.5651 74.6908C42.6173 64.9968 18.6691 91.1788 14.9127 86.5908C11.1562 82.0028 67.6071 26.5208 61.2259 18.7388C52.2077 7.73882 -67.1261 131.162 -50.3942 151.57C-42.8649 160.754 17.6592 101.557 20.1658 104.618C22.6723 107.679 11.8733 117.465 16.2643 122.821ZM367.63 16.1738C374.556 24.6208 331.741 76.3478 339.192 85.4358C347.841 95.9848 415.984 14.8058 427 1.36882C438.016 -12.0682 354.167 -38.5572 360.899 -30.3462C367.007 -22.8962 329.633 20.8468 337.43 30.3538C341.8 35.6868 364.19 11.9778 367.63 16.1738ZM170.559 289.374C163.634 280.927 206.449 229.2 198.997 220.112C190.35 209.563 122.206 290.743 111.191 304.178C100.176 317.613 184.024 344.104 177.292 335.893C171.183 328.442 208.556 284.7 200.76 275.193C196.391 269.861 174 293.57 170.56 289.374H170.559ZM164.158 11.9938C159.97 6.88483 193.578 -40.9682 186.238 -49.9272C157.701 -84.7352 100.743 3.54882 110.667 15.6528C116.715 23.0248 145.624 -4.32318 145.624 10.5898C145.624 20.3898 104.248 66.9698 111.668 76.0238C119.088 85.0778 155.503 34.9688 161.204 41.9238C164.475 45.9138 151.72 61.4708 155.105 65.5998C160.667 72.3838 231.617 -0.386189 231.617 -10.1242C231.613 -35.0712 168.344 17.1028 164.158 11.9938ZM279.24 291.015C283.429 296.124 249.82 343.977 257.16 352.936C285.702 387.743 342.66 299.46 332.734 287.356C326.686 279.984 297.777 307.332 297.777 292.419C297.777 282.619 339.153 236.039 331.733 226.985C324.313 217.931 287.902 268.043 282.201 261.088C278.93 257.099 291.685 241.543 288.3 237.412C278.725 225.734 211.788 303.398 211.788 313.136C211.783 338.08 275.052 285.906 279.24 291.015ZM282.631 56.8428C286.671 61.7718 328.141 11.4028 321.638 3.47182C315.136 -4.45918 284.844 27.7198 281.386 23.5018C277.928 19.2838 331.402 -34.8902 323.923 -44.0072C317.683 -51.6202 280.523 -13.4132 276.388 -18.4562C273.098 -22.4692 276.196 -42.6782 267.31 -31.8412C258.424 -21.0042 217.843 19.7738 225.327 28.9008C230.233 34.8848 247.463 19.5758 251.284 24.2358C255.105 28.8958 219.457 68.0828 226.612 76.8058C233.542 85.2588 283.917 37.2758 286.228 40.0938C288.539 42.9118 278.59 51.9168 282.631 56.8428ZM0.743073 234.87C-3.01725 230.284 -41.6035 277.152 -35.5536 284.531C-29.5037 291.91 -1.31613 261.969 1.90179 265.893C5.11971 269.817 -44.6342 320.227 -37.679 328.71C-31.871 335.794 2.70433 300.242 6.55201 304.935C9.61345 308.669 6.73058 327.474 15 317.389C23.2695 307.304 61.0282 269.362 54.0653 260.869C49.5005 255.301 33.4685 269.546 29.9127 265.21C26.3568 260.874 59.5277 224.41 52.873 216.294C46.4247 208.429 -0.449265 253.076 -2.59871 250.454C-4.74815 247.832 4.50339 239.456 0.743073 234.87ZM176.75 61.6268C174.43 58.7978 160.931 71.7038 164.709 76.3128C168.488 80.9218 179.069 64.4558 176.75 61.6268ZM294.085 123.971C291.877 121.278 283.457 130.202 286.213 133.571C288.97 136.94 296.293 126.665 294.085 123.971ZM41.0122 124.182C37.8691 120.348 25.8835 133.051 29.8128 137.843C33.7421 142.635 44.1581 128.016 41.0122 124.183V124.182ZM101.611 28.9658C95.9395 22.0488 63.0192 58.7478 70.105 67.3948C77.1907 76.0418 107.283 35.8838 101.612 28.9668L101.611 28.9658ZM241.899 226.75C236.227 219.833 203.307 256.532 210.394 265.179C217.48 273.826 247.57 233.667 241.899 226.75ZM242.338 198.282C237.57 192.467 227.701 209.576 230.39 212.855C233.079 216.134 247.102 204.096 242.338 198.282ZM229.456 137.694C224.153 132.069 258.574 93.4428 254.411 89.0308C245.974 80.0838 186.266 154.343 198.637 167.465C207.493 176.857 247.774 143.01 240.606 135.405C237.723 132.348 232.091 140.488 229.456 137.694ZM99.769 108.394C93.9178 101.257 72.2554 145.994 79.4813 154.804C89.5767 167.117 138.843 99.3518 131.959 90.9558C128.561 86.8118 103.142 125.624 98.8148 120.346C96.6701 117.726 102.122 111.265 99.7699 108.396L99.769 108.394Z" fill="white"/>
</svg>
